<?xml version="1.0" standalone="no"?>
<!DOCTYPE svg PUBLIC "-//W3C//DTD SVG 1.1//EN" "http://www.w3.org/Graphics/SVG/1.1/DTD/svg11.dtd">
<svg version="1.1" xmlns="http://www.w3.org/2000/svg" viewBox="0 0 1878.067397613321 558.7079191480484" width="3756.134795226642" height="1117.4158382960968"><!-- svg-source:excalidraw --><metadata></metadata><defs><style class="style-fonts">
      </style></defs><rect x="0" y="0" width="1878.067397613321" height="558.7079191480484" fill="#ffffff"></rect><g stroke-linecap="round" transform="translate(10 10) rotate(0 929.0336988066605 269.3539595740242)"><path d="M0 0 C630.48 -1.12, 1261.19 -0.85, 1858.07 0 M0 0 C561.28 5.09, 1123.5 5.07, 1858.07 0 M1858.07 0 C1857.73 146.82, 1857.41 294.01, 1858.07 538.71 M1858.07 0 C1859.37 160.78, 1859.51 322.13, 1858.07 538.71 M1858.07 538.71 C1152.21 543, 445.88 543.27, 0 538.71 M1858.07 538.71 C1213.86 543.17, 569.64 543.91, 0 538.71 M0 538.71 C-0.53 339.85, -0.93 140.4, 0 0 M0 538.71 C1.82 390.56, 2.08 242.34, 0 0" stroke="transparent" stroke-width="1" fill="none"></path></g><g stroke-linecap="round" transform="translate(571.2112290472562 134.44169475315255) rotate(0 90.91226482087177 90.91226482087177)"><path d="M0 0 C0 0, 0 0, 0 0 M0 0 C0 0, 0 0, 0 0 M1.31 7.16 C0.06 4.07, 3.62 1.77, 4.78 -0.06 M0.53 5.93 C0.52 5.22, 1.3 4.58, 4.9 1.07 M2.88 12.11 C4.97 10.79, 5.4 6.98, 12.88 0.68 M1.38 12.59 C3.41 8.88, 7.28 3.19, 10.37 -0.86 M0.13 16.85 C8.4 14.36, 11.47 6.02, 12.27 -1.36 M0.61 18.24 C4.42 13.12, 9.79 7.03, 13.66 -1.12 M-3.05 23.05 C8.61 20.7, 10.15 16.46, 19.47 -0.91 M-0.4 24.06 C5.81 16.91, 13.63 9.55, 20.66 -0.76 M1.03 27.01 C10.64 16.03, 22.08 10.89, 28.46 0.82 M1.29 30.03 C9.45 20.41, 19.94 7.08, 24.81 0.57 M2.89 39.99 C9.59 29.33, 19.45 15.19, 28.36 -2.85 M-1.42 36 C10.22 24.47, 20.95 15.86, 32.86 0.42 M-1.88 42.93 C7.37 30.35, 20.35 26.43, 38.19 -1.37 M1.02 43.86 C6.96 34.64, 14.13 26.23, 35.79 -0.86 M0.87 45.23 C8.04 41.46, 16.77 26.94, 39.65 3.46 M1.02 47.5 C10.77 37.71, 21.21 21.34, 42.3 1.6 M-0.06 56.01 C15.21 38.24, 29.75 26.96, 51.36 4.1 M-1.29 55.36 C15.64 38.04, 28.94 21.33, 45.82 -1.06 M1.11 58.57 C16.99 43.33, 22.69 31.15, 53.62 -2.32 M0.96 60.13 C20.28 38.33, 39.74 12.83, 54 -1.69 M-0.89 69.67 C18.64 41.25, 42.22 17.11, 54.63 0.54 M-1.79 69.3 C10.9 56.03, 23.23 40.06, 59.73 0.65 M-0.73 70.28 C15.01 52.57, 36.62 26.95, 63.29 2.71 M-1.26 71.1 C18.47 55.86, 31.35 34.82, 62.6 -1.57 M-1.03 80.32 C25.7 45.74, 46.7 17.29, 67.4 -1.54 M-1.02 80.56 C15.67 60.38, 35.74 38.62, 67.96 1.37 M-0.24 81.9 C24.64 57.17, 56.34 29.06, 70.44 -3.28 M0.31 85.97 C24.05 59.53, 45.92 32.82, 76.37 -1.78 M1.63 89.86 C21.18 62.22, 43.83 40.64, 77.81 3.66 M0.12 90.66 C22.41 64.1, 44.55 41.16, 78.6 -1.47 M-0.92 98.97 C27.09 66.4, 52.21 37.1, 85.59 1.11 M0.59 99.47 C32.46 60.72, 62.84 26.36, 85.19 -1.67 M2.63 102.71 C37.25 63.69, 74.17 18.59, 90.78 1.16 M-0.97 104.74 C23.18 78.02, 41.6 53.86, 89.36 1.97 M-3.57 112.02 C31.03 77.99, 51.01 47.05, 96.03 0.55 M-1.89 108.39 C33.19 70.02, 65.9 32.73, 96.59 -0.23 M-1.75 118.53 C24.73 93.76, 43.93 63.32, 103.95 3.26 M-1.27 116.32 C39.08 75.9, 77.9 32.52, 99.57 1.88 M-2.19 125.09 C35.55 81.07, 72.64 36.37, 105.79 -1.05 M-0.97 120.21 C26.68 91.18, 55.84 61.61, 107.71 -0.08 M0.84 124.99 C20.9 100.15, 40.62 76.44, 107.73 1.5 M-0.79 128.03 C35.15 91.91, 69.35 48.64, 110.17 0.84 M2.63 136.71 C20.76 101.36, 50.04 68.51, 118.98 4.22 M-0.19 133.99 C28.55 102.21, 53.76 71.08, 116.66 1.31 M1.51 142.72 C29.42 101.81, 56.87 66.86, 125.27 -1.36 M0.03 140.63 C34.68 96.7, 73.38 54, 123.75 1.8 M3.03 148.67 C40.04 101.07, 80.73 56.75, 126.44 1.26 M-1.47 145.19 C48.17 88.23, 97.3 30.4, 125.15 0.57 M-1.67 150.17 C46.89 93.47, 93.73 42.34, 132.48 0.66 M0.41 153.39 C32.99 112.01, 68.49 72.21, 132.52 0.08 M-0.67 158.76 C31.35 114.16, 71.95 72.78, 134.23 -3.07 M-1.58 158.44 C37.33 118.73, 75.17 75.89, 138.41 0.88 M-1.75 166.84 C30.83 134.28, 58.59 98.5, 145.62 0.92 M1.74 165.52 C32.49 127.37, 66.46 85.39, 142.42 -0.51 M1.96 173.32 C42.96 123.43, 84.74 78.9, 148.08 -0.98 M1.35 172.07 C54.18 106.4, 113.81 39.89, 148.41 1.2 M0.94 178.2 C52.11 118.88, 102.03 55.23, 151.62 -3.24 M-0.16 176.54 C53.82 108.77, 111.21 42.92, 152.75 -0.14 M-1.09 181.32 C60.4 118.8, 119.33 50.86, 160.66 -2.96 M-0.28 183.21 C57.46 115.27, 112.32 54.32, 159.95 0.91 M5.46 181.23 C65.17 108.23, 128.11 39.69, 166 1.5 M4.12 183.6 C65.61 116.27, 124.44 46.73, 164.38 1.5 M8.83 184.71 C54.35 126.49, 106.22 76.96, 172.6 -2.76 M10.06 182.21 C68.69 117.57, 122.52 56.77, 168.75 -0.24 M13.22 181.23 C57.09 129.48, 97.96 82.25, 177.66 -2.45 M16.47 183.44 C51.4 140.43, 87.76 103.37, 176.19 -1.51 M25.07 183.12 C59.3 143.58, 94.6 95.93, 178.3 1.87 M21 181.45 C78.28 115.27, 139.7 45.98, 178.56 1.04 M27.48 185.61 C87.42 109.35, 150.69 35.55, 179.72 0.57 M28.36 182.55 C67.98 133.83, 105.63 91.34, 181.89 2.2 M31.51 180.92 C75.07 126.92, 121.65 80.58, 184.29 12.41 M32.39 182.37 C70.08 135.49, 111.19 89.17, 182.65 11.62 M37.46 185.2 C69.98 143.16, 100.64 108.42, 185.39 16.47 M37.8 181.61 C80.33 136.12, 119.2 88.39, 182.49 15.2 M46.2 185.48 C76.46 146.42, 114.86 108, 179.13 22.11 M42.07 183.41 C83.1 136.31, 122.91 90.52, 180.61 21.08 M46.18 179.7 C98.97 128.19, 144.63 77.58, 186.02 27.44 M47.47 181.74 C90.82 134.78, 131.73 90.3, 181.44 27.46 M53.7 178.8 C96.33 138.47, 135.04 88.27, 181.58 32.22 M52.54 183.31 C90.37 142.19, 127.64 100.47, 182.54 35.23 M57.59 178.84 C103.39 126.29, 147.05 79.45, 178.26 41.21 M58.15 180.72 C103.9 133.94, 144.92 84.97, 182.77 41.94 M67.49 182.3 C93.44 143.6, 126.54 106.88, 181.58 42.78 M64.96 180.36 C101.11 137.12, 140.62 90.54, 184.23 44.24 M69.69 182.7 C92.74 150.76, 122.57 124.51, 185.27 51.77 M68.68 180.69 C97.72 151.67, 127.96 119.72, 183.06 51.82 M70.99 183.49 C107.56 145.59, 140.28 111.03, 183.72 56.72 M72.84 182.72 C113.05 137.92, 154.89 95.08, 182.11 57.89 M80.26 184.85 C117.17 146.31, 146.68 103.37, 182.22 66.39 M79.09 183.96 C109.04 149.27, 138.16 117.95, 181.96 64.92 M81.92 186.4 C118.42 148.44, 141.81 122.91, 185.11 72.96 M85.45 184.46 C110.68 151.85, 139.11 121.28, 181.78 71.18 M88.07 182.47 C124.7 140.47, 157.97 100.5, 185.26 78.83 M91.16 181.28 C119.69 149.08, 151.93 116.68, 181.56 76.69 M92.75 184.58 C112.99 162.98, 132.46 133.07, 185.61 83.38 M95.7 182.27 C116.21 158.58, 135.29 137.54, 180.44 81.26 M100.66 183.95 C127.05 156.09, 146.86 130.12, 179.29 86.16 M100.28 183.8 C122.24 154.37, 146.87 130.4, 181.55 86.95 M105.41 182.04 C135.9 143.89, 168.95 114.99, 183.83 93.42 M106.82 184.5 C136.48 150.52, 164.58 115.31, 182.97 95.87 M110.29 184.97 C137.82 149.65, 158.72 123.82, 181.3 97.39 M111.47 183.03 C128.57 160.94, 147.37 139.71, 182.61 100.65 M114.53 186.08 C138.32 160.01, 156.72 134.74, 179.8 110.98 M115.62 183.83 C138.89 159.58, 156.12 136.85, 184.49 106.43 M126.01 184.42 C137.42 162.44, 156.77 137.14, 179.02 114.56 M123.38 182.86 C134.66 167.07, 150.56 153.42, 181.01 112.88 M131.53 183.24 C152.15 157.5, 165.93 137.58, 182.3 115.21 M128.57 181.35 C146.49 160.25, 169.47 134.77, 181.78 120.68 M133.58 184.48 C146.58 160.44, 163.09 142.59, 182.93 129.21 M132.26 183.55 C146.69 163.43, 164.58 149.95, 180.67 125.32 M136.55 179.3 C151.1 168.07, 166.64 147.68, 184.2 129.29 M137.74 182.5 C150.97 170.12, 161.14 156.22, 180.58 131.53 M143.53 182.55 C154.78 165.87, 171.52 153.02, 180.94 135.37 M144.01 181.74 C153.7 171.19, 163.27 158.56, 183.79 139.31 M150.5 183.29 C162.35 167.8, 171.97 155.53, 181.08 145.36 M148.83 181.11 C161.29 169.07, 173.37 155.55, 182.21 141.97 M151.14 179.29 C162.34 175.46, 169.61 163.94, 185.71 146.33 M154.16 182.45 C165.89 170.89, 174.86 159.47, 182.21 148.56 M163.03 183.51 C168.95 173.92, 179.78 157.62, 183.33 153.09 M161.19 183.39 C167.75 172.03, 172.74 164.63, 183.66 157.66 M168.44 178.61 C170.88 171.47, 176.07 165.6, 185.97 163.38 M163.83 183.07 C170.31 176.78, 177.3 168.01, 180.73 163.88 M172.42 179.62 C175.01 177.05, 178.61 171.21, 178.9 168.61 M171.67 183.83 C174.47 179.91, 175.76 174.52, 184.12 167.85 M175.98 180.8 C177.1 178.11, 180.25 179.82, 181.75 173.59 M175.78 181.64 C178.11 180, 179.33 177.35, 183.03 174.3 M180.36 182.24 C181.11 181.28, 181.75 180.56, 182.26 179.94 M180.5 182.19 C181.23 181.59, 182.23 180.41, 182.41 179.75 M-0.22 181.64 C-0.22 181.64, -0.22 181.64, -0.22 181.64 M-0.22 181.64 C-0.22 181.64, -0.22 181.64, -0.22 181.64 M5.71 182.74 C3.18 181, 2.07 178.3, 0.16 176.54 M6.81 181.99 C4.54 180.3, 3.47 179.64, -0.42 177.12 M13.46 184.58 C11.91 176.99, 8.66 176.68, 2.87 173.1 M13.41 180.53 C6.74 178.85, 2.02 172.98, -0.69 169.77 M22.01 184.46 C10.71 176.41, 14.15 173.19, -3.43 165.01 M18.28 180.77 C12.47 179.14, 10.58 172.53, -0.31 165.22 M28.45 178.62 C15.4 173.53, 5.87 164.96, 3.55 160.1 M24.26 181.39 C18.09 175.2, 9.91 170.08, -0.75 159.92 M33.43 185.21 C20.26 176.96, 14.42 172.47, 1.93 154.65 M29.09 181.08 C19.48 174.75, 11.86 164.95, -0.05 154.37 M33.15 179.07 C29.59 178.39, 17.84 168.12, -3.79 148.81 M38.42 182.08 C22.76 169.19, 9.85 161.95, 0.63 150.35 M39.02 183.52 C28.11 169.78, 18.06 155.82, 0.65 143.94 M40.64 181.59 C25.88 168.07, 13.98 154.12, -1.34 144.11 M52.15 179.01 C33.61 165.85, 22.89 154.54, 1.67 136.79 M48.7 181.31 C28.12 163.09, 7.83 146.78, -0.33 137.39 M58.59 178.08 C38.33 167.11, 11.12 149.31, -3.59 132.29 M54.52 183.08 C37.47 168.48, 21.52 153.66, -0.67 134.9 M64.1 178.83 C40.24 162.01, 23.47 147.37, 3.96 130.46 M59.1 183.06 C48.65 171.79, 34.89 159.92, 1.83 127.98 M64.91 182.36 C49.03 167.57, 26.41 145.5, -3.89 119.86 M66.42 182 C52.84 167.67, 37 152.98, 1.86 124.82 M75.67 180.35 C45.01 155.58, 23.65 135.86, 4.11 119.05 M74.77 181.55 C57.61 169.42, 38.16 154.38, -1.34 116.69 M76.26 180.54 C61.95 168.43, 46.46 155.48, 1.91 115.54 M78.67 182.42 C57.84 162.21, 36.72 146.2, -1.51 113.58 M86.5 184.16 C60.67 153.42, 29.93 128.52, 0.66 110.49 M86.96 182.68 C55.16 158.67, 27.9 132.72, 0.38 109.7 M89.43 180.89 C65.96 156.26, 41.09 132.83, 3.22 104.99 M93.22 181.34 C56.96 148.77, 20.71 119.93, 1.87 102.49 M93.77 185.56 C69.21 156.02, 47.65 133.39, 2.65 96.8 M97.57 179.93 C60.35 150.54, 24.17 118.83, 0.81 98.14 M105.21 185.1 C71.57 158.62, 41.66 131.88, 0.7 90.61 M105.14 182.07 C72.96 155.96, 43.64 128.85, 1.03 90.53 M113.13 179.96 C63.64 147.87, 21.02 105.48, -1.65 86.76 M108.1 179.76 C64.9 142.22, 22.9 104.66, 2.15 86.79 M117.38 185.63 C91.88 162.16, 60.75 138.41, -1.74 83.55 M115.64 183.56 C74.23 143.11, 30.81 107.6, 1.33 82.27 M123.5 179.51 C72.62 141.55, 29.45 103.68, 3.31 73.9 M120.46 182.26 C79.19 145.18, 33.24 105.68, -1.01 74.04 M125.23 185.68 C95.83 153.67, 62.54 129.77, 3.07 71.71 M128.54 180.36 C97.93 154.47, 69.68 127.55, 0.55 71.9 M131.78 181.77 C99.22 154.16, 71.67 125.43, -3.69 68.5 M133.65 181.77 C92.93 145.59, 46.53 104.04, -1.74 63.9 M138.54 180.5 C108.65 154.53, 71.27 123.97, 1.52 59.75 M139.3 179.99 C105.29 147.91, 69.31 117.47, 0.83 59.28 M145.88 183.08 C102.57 143.67, 59.9 102.99, -0.61 57.59 M144.81 180.33 C113.31 156.68, 83.7 127.02, -0.7 54.02 M154.13 182.09 C124.31 150.75, 87.42 122, -0.66 52.66 M151.78 183.38 C116.6 149.58, 80.97 121.02, 0.59 49.76 M155.61 182.42 C120.41 146.3, 78.52 113.74, -1.91 44.83 M157.8 183.34 C94.92 128.23, 31.73 74.48, 1.61 43.72 M165.6 180.3 C125.06 148.73, 84.56 109.12, -2.4 41.38 M166.57 182.51 C124.38 145.85, 82.35 110.2, -0.92 38.64 M168.12 179.54 C133.39 143.48, 90.34 108.78, -3.28 34.84 M171.56 181.93 C105.31 121.62, 36.35 62.23, 1.6 33.7 M174.99 178.95 C145.01 148.39, 104.9 118.7, -0.35 25.37 M175.82 180.34 C125.54 132.75, 69.36 88.22, -0.88 26.69 M185.83 181.11 C115.53 119.95, 48.5 63.37, 1.81 24.85 M182.62 180.13 C114.35 123.32, 48.85 66.9, -0.08 22.75 M181.9 177.83 C148.27 145.66, 106.51 108.59, -1.88 17.85 M181.2 176.6 C140.1 140.43, 96 103.62, 0.28 15.86 M182.02 170.3 C138.92 135.82, 99.98 101.94, 2.41 13.33 M182.5 172.21 C121.37 120.06, 58.95 64.39, 0.64 11.05 M182.78 164.12 C120.26 103.61, 54.6 51.77, 2.71 6.28 M181.9 165.59 C108.64 104.21, 37.99 43.2, 0.01 6.71 M183.51 158.84 C114.2 100.46, 45.93 38.68, -2.8 -0.79 M183.64 161.57 C132.31 114.72, 85.48 74.23, 1.37 0.06 M180.68 155.57 C144.64 121.74, 111.89 89.42, 6.56 -0.36 M181.29 156.29 C115.31 97.88, 47.58 38.09, 3.46 -1.43 M181.04 148.48 C144.17 116.95, 107.06 80.01, 10.57 -2.79 M183.51 149.09 C124 93.62, 61.57 41.95, 9.92 1.15 M182.75 146.02 C132.65 99.93, 80.43 51.87, 18.2 -0.63 M181.07 144.45 C131.3 98.47, 75.65 52.12, 15.48 0.7 M181.45 141.89 C123.57 90.5, 59.44 34.15, 18.79 1.28 M183.1 140.46 C140.97 100.83, 95.33 63.14, 20.28 -1.52 M185.63 136.55 C146.57 97.82, 109.22 70.35, 30.72 -1.52 M183.5 133.83 C123.91 78.53, 65.1 29.38, 26.39 1.28 M180.68 128.21 C142.03 94.11, 99.95 55.24, 33.4 -4.02 M184.02 129.15 C147.51 100.35, 113.94 70.14, 32.06 -0.82 M181.02 121.54 C128.67 75.9, 74.23 25.54, 37.13 0.88 M180.21 122.87 C150.76 97.41, 114.98 69.06, 42.15 -0.57 M185.58 118.47 C132.82 74.7, 75.66 28.71, 43.82 -1.44 M184.21 116.44 C147.94 87.43, 112.81 59.62, 45.38 0.82 M178.06 110.97 C139.16 69.25, 88.97 28.26, 55.74 3.07 M181.75 111.23 C152.78 91.26, 124.88 66.37, 53.2 -1.21 M181.9 110.21 C140.29 67.12, 92.65 29.19, 54.66 2.48 M182.12 106.1 C144.78 78.61, 110.31 44.76, 57.6 -0.14 M182.7 100.74 C159.9 77.04, 136.31 56.82, 61.01 1.8 M183.86 100.36 C136.94 67.88, 99.12 32.33, 65.58 -2.73 M182.8 93.32 C153.79 64.34, 116.52 44.05, 68.46 -4.31 M180.53 95.33 C142.21 61.91, 102.86 27.9, 68.92 0.49 M179.72 87.12 C143.18 55.67, 103.21 25.35, 79.11 3.4 M182.48 89.28 C144.98 59.02, 107.93 28.23, 78.68 -1.15 M180.7 82.47 C155.6 56.83, 124.17 36.22, 82.26 -1.79 M182.58 86.97 C148.28 58.6, 115.2 27.4, 83.18 -0.17 M181.17 83.14 C155.72 54.61, 127.77 31.06, 89.19 -3.05 M181.95 78.64 C162.12 64.55, 143.63 47.52, 90.02 -0.82 M179.26 77.06 C151.56 54.68, 129.2 30.67, 96.34 -1.18 M183.77 73.48 C162.77 58.81, 143.77 40.03, 96.56 0.66 M178.32 70.58 C154.64 44.51, 131.12 20.89, 99.91 -1.75 M182.97 70.69 C152.89 41.74, 119.36 15.52, 99.72 -2.52 M185.38 61.23 C161.89 45.89, 138.98 26.22, 107 3.71 M184 64.92 C161.47 44.85, 138.95 27.59, 106.41 0.02 M182.46 56.62 C159.16 42.07, 136.16 22.31, 114.43 -0.78 M183.36 57.98 C165.31 45.63, 150.78 29.5, 111.56 -2.03 M185.23 51.9 C156.09 35.46, 141.16 15.94, 119.5 1.83 M183.53 53.01 C166.39 41.29, 154.17 29.09, 120.16 -1.38 M181.87 47.23 C167.83 34.38, 156.42 21.12, 123.17 0.5 M183.07 48.73 C159.74 26.52, 134.47 8.03, 125.68 -1.52 M184.22 42.7 C163.08 29.2, 146.88 10.09, 128.64 0.88 M183.01 43.08 C167.32 27.37, 150.25 14.55, 131.9 0.77 M186.34 35.08 C172.19 32.04, 160.3 22.32, 136.54 -3.84 M180.68 38.73 C164.24 24.91, 147.15 9.81, 139.34 -0.89 M183 36.05 C171.78 26.71, 164.21 20.18, 139.7 0.62 M183.43 34.08 C172.5 24.7, 164.97 18.94, 143.32 -0.28 M184.16 28.97 C172.79 18.9, 155.47 9.63, 149.94 3.03 M182.39 28.75 C169.8 18.74, 157.79 6.42, 151.93 -0.36 M185.48 19.1 C179.36 13.63, 171.89 14.86, 153.23 1.59 M182.19 22.59 C172.99 12.04, 162.7 6.31, 156.51 -1.63 M182.85 14.4 C175.28 12.94, 166.92 2.47, 164.28 0.67 M182.77 17.17 C177.6 13.74, 170.47 7.93, 161.46 -0.58 M182.76 11.73 C180.79 6.6, 178.73 7.67, 166.02 -2.08 M181.17 10.88 C175.66 5.51, 172.56 3.2, 166.85 -1.92 M183.98 8.26 C180.03 5.39, 179.27 3.19, 174.61 0.1 M181.54 7.36 C179.85 3.91, 175.22 0.38, 173.83 -0.97 M182.41 1.07 C181.41 0.65, 181.72 0.37, 180.79 -0.6 M182.08 1.06 C181.74 0.7, 181.39 0.48, 180.42 -0.46" stroke="#ffa94d" stroke-width="0.5" fill="none"></path><path d="M-1.37 -3.3 C45.49 -2.52, 91.39 -5.83, 185.27 1.84 M-0.03 0.1 C61.59 5.21, 123.8 3.54, 183.63 -1.98 M180.55 -2.86 C181.25 66.89, 180.64 133.19, 181.33 179.28 M180.82 0.89 C180.85 45.05, 179.23 89.37, 179.9 181.69 M182.78 185.54 C120.26 182.99, 50.73 186.8, 3.95 184.11 M180.88 180.78 C117.76 180.5, 51.53 183.07, 0.08 182.14 M-0.7 178.8 C1.35 142.82, 4.08 107.18, -3.44 2.3 M1.01 183.19 C2.43 139.85, 2 101.12, 1.65 -0.16" stroke="#1e1e1e" stroke-width="1" fill="none"></path></g><g stroke-linecap="round" transform="translate(593.2112290472562 160.4416947531525) rotate(0 90.91226482087177 90.91226482087174)"><path d="M0 0 C0 0, 0 0, 0 0 M0 0 C0 0, 0 0, 0 0 M-0.04 6.16 C2.1 3.59, 4.32 3.92, 5.38 1.4 M-0.81 6.38 C1.1 4.48, 2.9 2.01, 5.18 -0.19 M0.97 9.59 C1.77 8.03, 6.45 3, 9.37 -2.08 M-0.52 10.67 C4.36 6.6, 8.64 3.86, 9.97 0.61 M-2.36 14.99 C2.49 16.24, 7.66 6.8, 14.5 3.71 M1.67 17.6 C4.06 15.13, 9.35 7.73, 15.51 2.3 M3.74 23.22 C8.92 17.12, 11.54 12.71, 23.77 -1.4 M2.21 24.2 C7.59 15.67, 15.08 5.28, 21.78 0.78 M-2.56 28.28 C5.3 26.1, 14.97 12.31, 29.75 -1.5 M-1.07 31.95 C6.26 25.24, 11.55 17.23, 27.3 1.02 M-3.3 39.19 C9.98 24.97, 21.25 14.27, 29.49 -1.98 M-0.08 34.92 C10.68 24.2, 18.32 16.66, 31.71 1.05 M1.07 42.21 C15.96 26.27, 23.08 12.42, 34.48 0.5 M1.6 41.47 C11.44 30.38, 22.76 14.04, 38.63 1.93 M-2.85 51.54 C11.48 41.16, 20.44 26.35, 43.38 -3.54 M-0.97 48.23 C11.29 38.01, 18.16 29.11, 41.16 1.51 M2.7 56.58 C11.04 37.22, 29.52 16.98, 44.25 2.13 M-1.25 54.61 C16.36 35.41, 33.46 17.14, 48.88 0.16 M-3.06 60.43 C18.33 41.86, 38.56 16.55, 51.33 -2.07 M1.78 60.53 C12.46 46.73, 26.04 29.83, 53.34 -1.49 M-3.43 67.16 C15.09 50.01, 34.6 27.18, 59.31 -0.97 M0.44 68.95 C20.01 43.92, 39.38 24.78, 59.08 -0.77 M-2.64 76.53 C10.67 58.31, 32.75 35.87, 64.01 1.74 M0.68 71.83 C23.92 48.28, 45.51 21.82, 65.09 0.75 M3.64 78.75 C12.34 60.9, 22.87 49.98, 72.7 -1.88 M0.31 80.18 C14.02 63.4, 28.84 43.21, 67.86 -0.98 M0.44 81.73 C20.51 60.28, 38.64 41.94, 76.81 2.41 M1.88 86.51 C22.51 56.73, 43.51 34.41, 74.85 1.29 M3.67 93.62 C31.19 54.87, 58.27 24.57, 78.19 1.56 M-0.34 90.63 C21.1 67.08, 39.5 43.33, 79.5 -0.2 M0.29 93.97 C34.25 59.21, 64.3 18.17, 85.88 -2.27 M0.49 98.11 C21.62 73.36, 41.16 50.58, 86.72 1.59 M1.8 100.56 C35.48 70.4, 65.95 35.79, 86.32 -1.23 M2.07 102.27 C28.24 71.51, 52.14 44.38, 91.89 -1.79 M1.76 108.13 C29.45 79.79, 53.2 53.72, 96.13 -3.27 M-0.78 110.24 C23.51 83.57, 42.35 61.06, 94.38 -0.52 M3.93 115.61 C19.01 85.84, 47.4 63.02, 100.36 -1.61 M0.74 117.4 C38.12 74.7, 70.52 33.43, 100.54 -0.74 M0.47 124.64 C30.21 91.17, 54.29 58.45, 105.21 -4.29 M0.42 121.17 C22.9 96.64, 45.98 69.56, 105.17 1.16 M0.06 126.8 C31.8 91.8, 60.1 55.73, 108.33 -3.65 M-2.15 127.48 C39.47 84.65, 79.13 39.5, 110.59 0.34 M1.44 130.4 C50.46 76.8, 91.27 31, 118.87 2.94 M0.73 132.8 C34.62 91.78, 69.7 54.63, 115.4 1.95 M-1.09 139.17 C25.38 112.2, 57.53 82.3, 123.02 -0.2 M-0.84 142.1 C46.17 85.77, 92.36 36.08, 120.82 -0.79 M2.46 147.57 C53.4 91.51, 98.57 37.78, 129.57 3.71 M-1.56 147.38 C40.32 104.91, 77.07 59.65, 124.95 -0.69 M-0.02 154.96 C35.34 114.25, 65.84 77.99, 133.81 2.82 M-1.7 153.33 C42.29 99.84, 87.63 48.12, 131.72 -1.79 M1.2 161.91 C27.21 125.08, 53.85 90.48, 136.66 -2.78 M0.64 160.14 C43.4 106.65, 85.36 59.01, 137.4 1.19 M3.64 164.13 C34.43 124.27, 66.4 88.17, 139.89 -3.44 M-1.39 165.22 C53.83 100.07, 107.92 36.51, 144.77 -0.66 M-1.02 169.95 C52.85 115.06, 98.26 51.06, 148.43 -0.38 M-1.27 169.35 C30.27 131.64, 65.7 92.15, 146.74 -0.26 M-2.4 174.34 C54.77 107.85, 113.74 46.09, 154.31 2.89 M1.15 177.75 C41.58 133.45, 78.17 88.26, 152.8 1.53 M2.43 185.28 C58.21 121.4, 115.44 55.02, 158.75 0.35 M-0.79 181.3 C58.77 121.22, 116.9 55.49, 159.62 -1.28 M3.01 182.35 C47.67 136.5, 89.33 83.14, 163.01 -2.13 M6.87 182.03 C56.32 122.07, 106.07 62.83, 163.84 0.81 M14.58 179.74 C54.45 129.73, 98.14 80.81, 169.48 -0.67 M11.74 181.69 C43.61 140.01, 80.74 96.94, 170.16 1.73 M15.55 180.44 C58.55 129.98, 107.75 84.14, 173.26 1.23 M16.36 182.18 C75.71 114.2, 137.66 43.9, 173.53 0.32 M20.23 183.33 C54.58 144.7, 90.67 100.48, 183.05 -0.89 M21.86 181.99 C82.45 108.63, 145.35 35.7, 180.66 -0.5 M26.62 183.01 C86.08 112.12, 148.77 40.03, 182.83 5.65 M26.17 182.01 C66.97 136.25, 106.71 91.66, 182.34 3.81 M34.62 184.16 C88.9 118.98, 147.32 46.69, 180.59 8.04 M32.91 182.66 C63.25 145.35, 98.29 104.89, 182.87 9.48 M40.19 181.09 C88.14 130.43, 132.91 78.01, 182.83 13.79 M36.14 182.96 C92.86 123.11, 144.49 61.69, 181.45 16.15 M39.99 179.36 C75.53 140.92, 111.68 102.78, 178.94 19.86 M42.9 180.99 C85.43 129.19, 129.6 78.11, 181.56 22.15 M47.05 181.92 C98.93 117.36, 151.74 59.76, 182.75 25.04 M47.57 183.42 C94.21 127.57, 139.48 76.4, 181.21 26.19 M53.39 183.17 C98.59 129.62, 145.64 79.16, 185.24 37.01 M54.78 181.51 C87.32 142.87, 121.07 106.19, 181.73 33.37 M59.66 181.83 C90.87 137.28, 128.29 101.9, 185.46 36.89 M59.85 181.9 C91.16 140.67, 123.05 106.36, 182.35 39.09 M65.02 184.45 C108.5 134.29, 151.43 80.66, 182.51 44.05 M65.61 182.37 C101.11 138.17, 137.36 98.86, 181.03 45.32 M69.74 179.83 C111.39 136.32, 144.96 93.74, 180.55 56.14 M69.67 180.9 C95.32 150.98, 122.08 121.4, 181.54 51.47 M71.06 182.24 C96.71 159.9, 118.95 132.99, 184.93 59.98 M73.22 182.21 C102.13 152.37, 128.03 121.04, 182.16 56.72 M76.8 186.14 C114.27 143.48, 154.49 95.32, 180.41 62.14 M79.3 183.78 C109.22 144.31, 143.9 108.26, 182.61 65.79 M86.85 184.96 C114.45 152.73, 138.93 122.24, 183.26 68.1 M83.07 181.89 C107.16 158.92, 127.1 134.77, 180.94 71.4 M89.26 182.3 C109.65 155.92, 133.58 132.52, 182.81 77.05 M92.69 182.09 C114.74 155.63, 140.08 127.66, 183.81 76.31 M94.51 182.51 C117.84 158.13, 144.63 131.71, 178.96 84.67 M96.27 180.95 C118.52 159.2, 142.11 134.01, 180.75 83.31 M100.25 185.09 C127.94 145.66, 162.76 115.99, 186.28 86.29 M99.41 183.8 C119.32 160.15, 137.48 140, 181.03 89.68 M109.56 183.3 C131.18 155.9, 154.8 130.48, 180.27 91.49 M108.2 182.52 C127.08 158.53, 147.25 137.28, 180.65 93.02 M111.69 182.56 C136.79 156.06, 160.89 120.68, 181.44 103.27 M110.69 181.23 C135.04 154.24, 158.81 128.37, 183.15 101.67 M116.29 183 C134.63 161.39, 156.25 139.11, 180.85 104.84 M115.89 182.11 C142.77 155.05, 166.48 126.43, 181.96 108.74 M126.22 181.97 C132.49 168.07, 147.64 154.13, 185.63 110.38 M123.33 183.08 C145.14 158.53, 168.74 129.63, 182.61 114.15 M123.73 180.52 C143.51 158.2, 160.86 137.23, 183.1 120.26 M125.98 183.61 C144.42 159.88, 162.6 142.23, 183.63 119.04 M131.25 185.88 C148.52 166.61, 165.36 150.49, 182.97 127.55 M131.81 182.42 C152.31 162.11, 171.15 142.45, 183.53 123.63 M141.64 186.01 C151.42 173.04, 162.99 154.34, 181.51 129.29 M138.74 183.29 C149.75 170.42, 158.83 157.73, 181.6 133.63 M146.93 184.06 C155.02 167.11, 171.85 150.49, 183 137.19 M144.19 180.72 C156.69 168.12, 168.25 158.5, 184.29 138.27 M148.57 180.89 C156.03 173.74, 169.89 156.51, 181.3 140.45 M148.06 181.78 C158.92 171.01, 171.31 155.36, 183.39 144.33 M154.17 185.55 C161.79 175.67, 169.08 161.87, 179.98 148.94 M154.19 183.79 C160.95 174.22, 164.66 168.08, 180.92 150.58 M155.77 181.81 C165.65 176.21, 174.62 170.48, 178.48 159.78 M161.45 184.1 C162.28 176.63, 169.04 172.62, 184.15 157.59 M166.6 178.64 C171.96 178.44, 170.35 170.18, 184.28 160.49 M165.14 181.83 C170.36 175.93, 177.79 168.91, 182.4 162.19 M167.43 184.58 C170.76 181.19, 173.68 176.58, 186.23 171.63 M171.96 183.57 C174.34 180.05, 176.69 177.26, 181.42 167.51 M175.2 180.39 C176.28 179.03, 180.85 178.23, 183.66 172.43 M174.87 181.68 C176.71 179.39, 179.17 178.34, 181.82 173.62 M180.61 182.05 C181.84 181.97, 182.37 181.28, 182.2 180.08 M181.03 182.27 C181.27 181.46, 182.14 180.97, 182.61 180.09 M-0.22 181.64 C-0.22 181.64, -0.22 181.64, -0.22 181.64 M-0.22 181.64 C-0.22 181.64, -0.22 181.64, -0.22 181.64 M5.37 180.4 C3.63 179.91, 0.74 177.27, 0.28 177.94 M5.99 182.22 C5.7 180.97, 4.41 179.71, -0.14 175.85 M12.79 181.91 C6.21 175.93, 3.01 178.01, -1.48 171.47 M11.5 182.41 C6.67 179.31, 2.37 174.46, -1.76 170.17 M16.93 180.87 C10.37 174.57, 8.77 167.29, -1.7 162.24 M17.06 183.68 C13.6 176.68, 6.62 171.19, -0.62 164.27 M21.18 184.47 C20.75 178.65, 17.42 168.57, 3.17 162.38 M23.7 182.31 C19.08 179.12, 13.75 173.82, -0.75 160.82 M31.81 183.14 C17.73 173.41, 12.61 160.52, -0.55 153.19 M30.92 179.85 C17.46 172.48, 5.85 163.91, 0.01 156.54 M34.34 181.19 C27.16 171.93, 16.13 167.1, 0.46 152.8 M34.84 180.69 C28.2 174.46, 19.47 166.62, 1.24 149.12 M44.95 183.87 C22.83 168.1, 11.83 151.73, -3.26 141 M42.57 179.94 C29.45 169.35, 14.82 156.64, 1.29 146.47 M45.06 178.1 C37.13 168.92, 25.56 162.44, -1.5 141.5 M50.04 180.94 C33.56 169.2, 18.23 157.57, -1 137.71 M56.52 183.37 C38.04 168.82, 29.53 160.52, 2.19 130.69 M56.4 182.92 C40.25 169.82, 24.54 154.27, -0.47 134.7 M64.37 181.23 C37.67 157.69, 12.39 140.56, 1.7 128.54 M62.12 183.21 C38.52 161.6, 17.88 143.13, 0.79 127.68 M67.65 180.73 C53.85 170.25, 31.14 158.85, -0.9 120.06 M66.91 183.45 C41.2 160.06, 14.41 134.15, -0.55 123.5 M75.31 182.01 C52.53 165.16, 29.86 146.65, -0.54 120.77 M73.04 181.92 C52.5 161.89, 29.65 143.91, 0.98 119.82 M77.02 185.75 C50.4 159.86, 23.97 130.06, -2 115.62 M79.25 183.75 C56.67 160.43, 33.77 140.43, -1.89 112.77 M85.91 178.65 C62.94 158.47, 36.1 143.36, 2.69 111.73 M86.86 183.15 C67.73 164.58, 48.8 151.91, 0.6 106.48 M93.8 184.34 C74.37 166.49, 54.28 146.59, -3.33 100.65 M90.18 183.03 C66.53 163.34, 43.11 142.74, 0.97 104.03 M93.71 180.1 C66.46 158.44, 33.51 132.33, 0.81 95.09 M98.3 180.57 C67.41 157.22, 38.44 131.02, 0.29 96.99 M107.13 179.81 C62.66 148.46, 20.69 111.66, -3.84 91.18 M105.59 182.79 C69.18 151.36, 34.9 120.05, 1.86 92.41 M106.74 179.38 C77.44 149.44, 41.9 119.3, 2.48 89.24 M109.68 180.83 C79.84 155.57, 49.84 130.27, 1.05 86.31 M115.18 182.24 C78.28 152.62, 39.76 118.77, 0.73 79.99 M117.49 180.15 C75.48 143.24, 28.56 104.13, -1.03 82.68 M120.28 178.26 C84.55 149.98, 54.6 119.44, 3.6 73.34 M123.69 180.19 C90.4 151.69, 55.89 125.21, 0.27 75.01 M129.6 180.45 C90.38 157.27, 56.4 125.26, 1.94 68.6 M128.51 183.86 C80.92 142.66, 35.02 103.2, -1.12 69.24 M133.63 179.93 C102.94 154.31, 65.27 121.85, 3.34 67.28 M136.18 181.21 C84.29 136.53, 36.7 92.71, -0.27 65.3 M140.56 179.34 C99.12 144.49, 60.17 112.08, 2.57 59.3 M140.94 183.63 C95.68 140.13, 54.62 104.25, 0.54 60.1 M147.06 178.35 C110.22 155.88, 75.6 120.64, 4.11 51.73 M145.08 182.08 C100.74 142.31, 55.33 101.95, 1.56 53.02 M149.76 184.25 C114.53 148.64, 82.45 117.68, 0.55 47.31 M153.27 182.65 C98.47 134.79, 42.03 86.44, -0.67 48.93 M158.39 178.64 C113.6 143.74, 71.82 108.97, 3.16 47.62 M158.92 180.76 C114.79 144.14, 70.68 105.44, 0.25 43.67 M162.18 179.55 C122.07 149.07, 77.47 107.59, -2.25 36.14 M165.56 182.81 C112.77 140.87, 62.01 95.95, -1.07 38.87 M168.23 183.92 C132 147.67, 97 115.18, 2.24 30.92 M170.14 183.31 C104.57 128.82, 38.9 71.98, -1.06 32.35 M175.99 184.52 C127.4 137.65, 83.03 97.08, -2.13 29.57 M175.81 181.42 C133.69 139.13, 89.21 103.12, -0.73 27.18 M179.61 178.7 C108.68 125.16, 41.47 65.07, -2.14 22.03 M182.87 183.05 C110.05 124.07, 39.09 61.99, 0.23 23.28 M180.98 173.26 C109.95 111.35, 33.47 48.02, 0.49 18.44 M181.16 176.77 C120.99 120.42, 59.21 66.42, 0.67 16.05 M185.88 171.36 C141.81 133.62, 98.8 99.14, 2.81 13.56 M182.45 171.37 C114.5 114.88, 47.37 55.37, 0.38 11.68 M184.08 167.77 C144.64 132.68, 103.16 98.79, 2.26 8.58 M183.15 164.98 C139.01 125.85, 97.43 88.08, 1.27 6.19 M180.95 158.25 C123.55 106.86, 72.48 62.37, -0.68 -0.7 M182.07 161.75 C133.34 120.18, 88.84 81.41, -0.56 0.87 M185.33 153.84 C126.96 105.88, 73.45 60.29, 3.28 0.29 M180.84 153.53 C136.85 113.22, 89.96 72.44, 3.58 0.43 M182.5 152.54 C118.85 92.03, 61.18 42.38, 8.72 2.07 M183.16 148.57 C136.16 108.4, 88.57 67.14, 10.9 0.71 M182.08 146.67 C144.66 114.94, 105.65 80.54, 19.15 -0.31 M181.65 143.3 C145.11 109.8, 108.09 74.18, 16.47 -1.95 M184.43 141.29 C133.02 97.37, 83.19 53.39, 24.66 -3.38 M184.16 137.56 C136.19 100.1, 86.32 55.63, 21.07 0.65 M181.15 135.15 C144.75 100.94, 104.96 71.4, 29.72 -2.27 M183.41 133.27 C149.4 100.83, 113.02 68.52, 27.6 1.04 M183.01 124.78 C130.72 81.78, 83.39 38.19, 34.88 -3.31 M183.78 129.47 C133.21 82.63, 81.28 34.45, 31.82 -0.7 M178.22 122.2 C127.61 77.19, 76.04 29.3, 42.93 -4.33 M180.2 123.84 C147.61 93.36, 112.5 63, 39.72 -1.79 M184.49 120.62 C146.8 80.36, 108.31 47.94, 46.42 -0.09 M184.29 118.89 C143.31 88.31, 108.42 54.62, 45.91 -0.56 M180.3 111.99 C144.13 84.03, 110.21 50.88, 53.96 -4.07 M181.5 112.91 C143.42 78.95, 105.55 46.97, 51.81 1.07 M183.4 107.9 C143.84 73.03, 108.08 46.33, 61.09 0.75 M181.09 105.38 C132.97 65.01, 81.76 19.59, 59.63 0.02 M181.19 101.89 C137.86 64.9, 85.54 23.37, 61.55 0.83 M181.83 100.03 C138.59 67.02, 101.12 29.54, 62.85 -0.32 M185.29 98.14 C151.76 76.81, 122.13 49.18, 69.8 -3.23 M181.78 98.32 C140.33 58.69, 100.92 24.11, 71.99 -0.59 M178.03 89.79 C152.02 66.94, 130.69 39.43, 76.23 -1.71 M183.98 90.43 C161.59 70.61, 140.58 52, 77.07 -1.79 M182.94 87.62 C159.6 69.47, 142.82 46.83, 81.95 1.62 M182.29 84.74 C150.43 59, 122.08 33.01, 81.64 0.93 M179.24 82.35 C151.14 53.74, 119.23 19.48, 85.53 -0.97 M183.07 78.91 C148.33 47.29, 111.75 16.72, 88.78 0.48 M180.38 73.36 C145.96 43.48, 111.41 13.8, 94.21 -2.3 M182.97 77.28 C153.14 45.2, 120.37 19.08, 95.58 -2.47 M180.48 70.97 C162.58 52.04, 148.41 38.25, 98.48 0.49 M182.63 69.94 C164.84 49.6, 143.8 33.23, 102.93 -2.06 M184.9 61.14 C161.38 46.71, 137.27 18.81, 107.25 0.82 M180.5 66.21 C165.11 49.85, 146.06 34.45, 105.97 0.46 M181.42 56.45 C164.68 50.36, 155.01 39.24, 110.63 0.19 M183.29 58.26 C163.61 42.62, 147.66 28.54, 112.11 -1.04 M183.03 57.5 C164.31 37.09, 144.35 21.35, 122.71 1.57 M183.97 55.41 C165.92 40.91, 148.78 26.84, 119.05 0.6 M182.7 46.4 C168.73 33.88, 155.56 20.24, 128.76 -3.6 M183.8 50.26 C159.74 29.82, 140.96 13.35, 125.25 -2.44 M180.57 45.7 C169.26 35.17, 155.76 18.09, 131.76 1.27 M182.82 42.41 C168.11 31.82, 155.1 19.71, 131.71 0.45 M182.49 35.11 C170.65 33.96, 165.55 22.79, 139.65 -3.17 M181.57 39.92 C165.44 23.08, 148.81 8.85, 136.45 -1.95 M178.54 33.78 C167.69 23.62, 159.29 13.11, 144.06 1.3 M182.88 34.34 C165.36 20, 149.54 7.85, 144.48 -0.54 M181.46 25 C179.52 24.76, 173.07 17.84, 147.09 -0.09 M181.61 26.2 C168.34 18.01, 157.23 7.82, 149.89 0.37 M181.23 22.51 C173.22 14.62, 165.89 6.85, 156.52 -4.18 M182.36 23.98 C175.69 15.79, 172.16 11.57, 154.24 -1.3 M183.51 19.2 C179.53 13.22, 171.46 5.47, 160.36 -1.15 M181.29 17.67 C178.97 14.8, 171.52 10.45, 160.4 0.08 M180.36 13.23 C178.07 9.61, 172.15 6, 169.9 -3.27 M183.65 9.9 C179.46 8.76, 177.21 6.57, 167.16 1.36 M181 6.04 C178.62 3.01, 178.29 0.58, 174.76 1.3 M182.43 5.45 C180.07 5, 177.17 2.39, 174.32 -1.57 M181.68 0.88 C181.11 0.71, 180.61 0.15, 180.36 -0.64 M182.09 0.76 C181.46 0.45, 181.2 0.13, 180.4 -0.47" stroke="#ffa94d" stroke-width="0.5" fill="none"></path><path d="M0.05 1.48 C49.77 5.02, 93.15 5.92, 183.72 -4 M-0.26 -0.52 C52.71 1.4, 109.39 1.98, 180.65 -0.62 M181.41 3.57 C178.72 54.18, 179.35 118.49, 181.91 183.82 M183.23 0.45 C181.03 68.19, 182.03 136.29, 182.51 181.88 M181.17 179.77 C121 177.86, 54.28 179.74, -1.58 184.28 M180.15 180.98 C114.44 183.16, 46.07 183.68, -0.2 181.95 M-3.91 178.94 C-4.76 133.09, -3.17 77.37, -1.03 3.79 M-0.9 181.4 C-0.39 116.64, -0.03 54.11, -0.02 -1.28" stroke="#1e1e1e" stroke-width="1" fill="none"></path></g><g stroke-linecap="round" transform="translate(615.2112290472562 182.4416947531525) rotate(0 90.91226482087177 90.91226482087174)"><path d="M0 0 C0 0, 0 0, 0 0 M0 0 C0 0, 0 0, 0 0 M-0.52 7.08 C1.49 3.53, 1.94 4.87, 4.39 0.1 M-0.27 6.89 C1.29 4.5, 1.98 4.47, 4.72 -0.33 M2.25 11.58 C2.7 9.75, 8 4.04, 13.74 1.99 M-0.44 13.31 C2.81 7.88, 8.64 3.14, 10.13 0.58 M-1.65 21.73 C4.6 12.31, 10.4 9.01, 11.8 1.33 M0.9 19.44 C5.93 11.73, 10.93 7.65, 16.28 -1.61 M-0.92 24.77 C7.19 17.88, 12.62 5.42, 21.55 -2.04 M0.97 22.2 C3.14 21.31, 8.96 15.39, 21.6 -1.3 M3.66 28.21 C8.95 16.34, 17.39 7.86, 26.87 -3.69 M-1.13 31.59 C5.71 20.17, 16.41 15.06, 25.14 -0.96 M0.3 40.61 C7.08 28.46, 16.6 15.22, 28.56 -2.98 M1.2 36.31 C7.69 28.43, 15.78 19.1, 32.3 0.83 M-3.72 42.21 C8.65 28.04, 15.44 22.11, 39.34 3.93 M0.15 42.08 C8.19 34.96, 16.9 25.48, 37.71 -0.73 M-0.58 51.76 C19.21 27.94, 32.73 8.11, 40.59 2.58 M-0.22 49.66 C10.21 35.55, 21.41 22.24, 42.74 1.04 M-1.75 57.64 C12.75 41.6, 26.9 25.16, 48.62 -1.28 M0.88 53.3 C15.56 38.39, 30.48 18.75, 46.46 2.15 M-3.82 64.5 C19.68 40.46, 33.76 24.38, 55.41 -3.2 M-0.01 62.57 C15.5 43.36, 34.87 23.56, 51.19 1.58 M-0.32 64.41 C10.6 51.78, 33.56 29.68, 54.87 -1.52 M-1.82 68.78 C15.73 44.66, 34.65 24.25, 57.46 -0.87 M-0.27 71.63 C20.06 51.74, 46.51 26.05, 63.55 -2.9 M-0.59 71.01 C21.75 44.87, 48.07 17.61, 65.55 1.09 M1.41 77.42 C13.13 62.38, 31.03 41.2, 66.97 0.24 M0.75 78.14 C18.95 55.49, 39.83 34.12, 70.43 2.04 M3.97 85.18 C28.59 51.55, 55.81 21.3, 72.29 0.14 M1.25 83.29 C14.74 66.55, 32.61 50.71, 75.32 -1.42 M3.07 93.08 C21.11 73.06, 34.3 46.71, 78.6 -3.72 M0.95 89.64 C27.09 58.87, 58.47 23.4, 78.68 -0.92 M2.9 97.19 C27.69 69.62, 53.75 32.98, 81.66 -2.19 M1.69 96.87 C33.28 60.14, 64.58 22.01, 83.66 1.44 M-2.31 102.31 C36.22 65.61, 68.37 20.78, 92.15 -1.87 M1.42 103.18 C23.83 71.18, 51.37 41.39, 89.17 -1.16 M1.24 108.68 C18.06 82.72, 39.17 57.89, 92.42 1.29 M0.49 111.31 C28.43 78.86, 55.42 46.41, 95.33 1.45 M3.03 115.26 C29.59 81.75, 57.1 43.65, 102.77 -3.41 M-1.56 115.02 C21.69 92.12, 43.22 69.01, 102.49 -1.75 M2.47 118.2 C34.21 83.82, 76.16 40.86, 106.12 0.99 M1.07 120.83 C40.47 79.14, 77.12 34.21, 104.72 -1.28 M-3.02 130.11 C31.39 98.99, 58.66 63.02, 114.36 1.69 M1.23 126.56 C35.58 89.64, 65.97 49.25, 112.83 -1.36 M3.51 134.78 C35.98 93.09, 74.38 52.42, 116.37 -0.69 M1.14 135.25 C29.4 101, 55.3 68.48, 115.2 -1.46 M0.11 137.99 C26.77 104.31, 59.3 75.13, 123.58 2.71 M-1.37 141.29 C44.89 90.4, 88.59 37.15, 120.04 1.73 M2 146.7 C45.62 88.45, 91.66 32.66, 127.5 -0.33 M0.03 144.77 C40.9 94.88, 86.54 44, 125.71 0.29 M-0.17 151.67 C33.87 110.28, 72.43 58.83, 135.49 0.16 M-0.78 153.26 C53.52 91.18, 108.91 30.17, 133.45 1.4 M3.24 161.86 C32.97 117.01, 72.27 76.53, 134.99 2.66 M-1.76 160.5 C53.92 102.05, 104.36 40.54, 138.72 1.78 M0.76 162.36 C58.3 106.63, 108.15 48.11, 141.5 -1.83 M1.32 164.53 C33.08 121.25, 68.39 82.89, 144.3 0.54 M0.89 174.17 C30.1 135.83, 60.67 96.8, 150.03 -2.86 M-0.82 172.3 C36.52 134.77, 68.48 95.6, 147.67 1.1 M0.68 179.27 C42.85 128.07, 83.69 79.72, 154.62 2.43 M1.82 176.89 C53.6 113.53, 108.81 50.15, 153.53 1.44 M1.76 182.14 C49.66 126.82, 101.87 63.35, 156.34 2.78 M-0.46 183.33 C60.53 112.55, 121.42 45.36, 158.44 0.12 M3.5 180.77 C56.24 133.24, 98.66 77.23, 167.41 1.19 M4.48 183.01 C37.88 145.84, 70.8 106.6, 163.18 0.03 M8.82 183.03 C43.32 141.43, 80.52 105.65, 172.55 0.77 M10.03 182.79 C73.04 110.02, 136.55 38.33, 171.02 0.81 M15.03 181.13 C53.02 137.31, 90.1 99.96, 173.69 -0.75 M15.66 181.96 C60.9 133.24, 106.2 81.41, 176.47 -0.67 M20 185.19 C67.44 121.92, 115.28 67.33, 177.64 2.16 M20.4 182.02 C52.79 142.94, 86.03 107, 180.25 -1.2 M29.86 183.17 C78.98 124.11, 128.53 62.46, 185.72 -0.54 M27.83 182.51 C73.03 130.52, 114.77 82.65, 182.77 1.52 M30.41 181.77 C93.65 117.37, 148.4 48.04, 184.62 8.19 M31.52 181.4 C89.17 116.85, 145.87 53.07, 185.75 7.56 M34.99 179.63 C85.02 126.48, 137.56 66.29, 185.26 12.71 M36.7 180.97 C84.83 126.12, 132.44 69.84, 184.88 14.45 M42.55 181.98 C81.73 139.74, 122.1 96.29, 182.28 19.57 M42.32 181.62 C82.4 136.4, 124.07 86.7, 183.58 21.15 M44.89 179.49 C82.41 142.76, 125.74 92.99, 182.85 28.89 M49.54 180.72 C97.85 126.11, 148.43 64.9, 185.33 25.48 M52.57 184.85 C87.23 138.63, 126.28 94.42, 183.59 28.91 M53.03 180.06 C100.31 125.51, 146.07 70.77, 184.8 33.47 M62.15 181.07 C86.98 149.83, 119.5 115.47, 181.18 35.72 M57.59 182.24 C106.48 128.55, 153.7 72.66, 182.42 39.17 M64.76 183.89 C90.84 155.47, 118.52 127.1, 182.32 47.61 M65.78 182.34 C90.73 154.54, 116.92 122.01, 185.31 45.26 M66.39 186.15 C98.4 147.68, 125.01 113.92, 184.39 54.48 M67.97 182.68 C109.22 138.49, 147.15 93.81, 183.22 50.01 M75.52 184.62 C107.44 143, 146.01 96.18, 180.8 56.94 M75.36 183.1 C106.95 149.22, 136.72 113.75, 183.01 57.23 M76.71 182.79 C111.89 147.39, 147.94 105.92, 182.56 61.06 M78.25 182.97 C100.33 156.15, 126.86 127.04, 182.91 62.24 M84.07 185.59 C128.41 139.79, 160.92 94.04, 182.32 65.57 M84.31 183.18 C106.78 160.13, 126.04 134.91, 185.4 70.4 M89.39 178.65 C117.14 156.42, 138.7 128.14, 180.68 76.47 M91.44 180.63 C120.78 148.49, 145.17 119.61, 184.17 74.83 M96.4 182.82 C116.76 158.93, 136.59 127.32, 182.25 78.16 M94.78 182.02 C120.29 152.47, 146.94 117.44, 184.99 82.92 M101.47 184.63 C117.29 158.76, 135.71 143.66, 185.16 84.27 M100.19 181.55 C131.06 149.66, 161.5 116.53, 183.96 86.34 M103.91 182.85 C123.34 163.24, 139 140.93, 186.67 92.36 M107.24 182.7 C127.51 159.45, 146.82 138.36, 181.84 95.04 M110.71 182.91 C138.18 153.11, 165.92 119.19, 187.15 95.23 M110.76 183.98 C130.79 157.8, 150.55 137.44, 184.86 99.73 M114.76 179.47 C134.84 157.72, 158.33 138.91, 184.45 103.34 M115.77 180.68 C142.96 153.31, 169.33 123.96, 183.7 105.66 M123.64 182.88 C143.66 162.75, 157.46 144.35, 185.9 108.14 M123.04 182.58 C144.96 160.31, 163.99 134.84, 182.4 111.08 M129.85 185.71 C150.16 154.66, 166.55 132.01, 181.89 116.76 M128.07 183.77 C148.23 157.47, 171.22 132.52, 184.58 117.28 M131.55 181.21 C146.27 165.48, 155.76 154.79, 183.37 122.79 M134.56 180.34 C144.95 172.51, 155.29 159.88, 183.75 122.58 M134.84 185.86 C156.26 160.36, 172.32 139.02, 185.99 133.52 M137.47 184.18 C151.18 167.76, 164.69 154.41, 184.13 128.8 M142.46 185.81 C156.24 163.93, 170.92 146.54, 180.3 136.46 M144.45 180.67 C151.41 170.24, 160.31 161.54, 183.69 135.06 M148.12 183.45 C158.15 177.44, 159.59 170.26, 179.88 142.55 M146.92 182.48 C161.35 168.15, 176.16 153.08, 182.95 144.24 M157.15 183.84 C160.83 169.7, 176.52 157.43, 186.86 148.93 M153.49 183.32 C164.1 172.68, 173.74 160, 183.3 148.98 M156.84 185.27 C165.22 174.48, 180.48 166.63, 181.41 157.73 M161.01 183.64 C167.26 175.41, 172.69 164.32, 185.25 153.72 M161.14 181.71 C170.35 180.46, 177.66 167.17, 181.93 163.25 M164.06 180.43 C170.78 176.81, 173.75 169.91, 185.29 161.15 M172.92 185.36 C174.89 182.75, 172.88 175.74, 183.2 166.5 M169.95 180.96 C175.45 177.72, 176.59 174.26, 182.9 166.01 M173.93 181.42 C179.49 181.05, 182.83 174.33, 184.16 171.42 M176.02 181.08 C178.17 178.02, 180.96 174.63, 184.66 173.27 M179.8 181.96 C181.65 180.25, 182.13 180.01, 184.83 177.57 M180.94 182.76 C181.92 181.65, 182.75 179.94, 183.52 178.26 M-0.22 181.64 C-0.22 181.64, -0.22 181.64, -0.22 181.64 M-0.22 181.64 C-0.22 181.64, -0.22 181.64, -0.22 181.64 M5.56 181.41 C6.2 179.56, 2.7 177.93, 0.58 175.35 M6.6 181.85 C4.12 179.99, 1.72 177.63, -0.5 176.17 M12.9 182.61 C11.16 175.34, 7.49 176.92, -3.34 172.21 M11.58 183.06 C8.92 180.18, 6.47 177.48, 0.47 171.54 M16.29 182.8 C16.63 174.91, 7.82 171.31, 3.12 166.9 M16.86 181.91 C9.41 176.73, 3.93 170.31, -0.98 166.38 M24.33 179.43 C13.34 174.33, 7.07 168.83, -3.16 157.85 M24.19 182.64 C19.23 177.44, 16.44 172.29, 1.54 159.06 M26.85 181.82 C20.15 169.85, 2.81 157.53, 1.72 154.77 M31.71 181.21 C19.51 170.21, 7.62 162.16, -1.87 156.18 M35.37 178.52 C26.32 173.04, 20.09 169.68, -0.43 153.54 M36.9 181.52 C22.8 171.03, 9.75 157.72, -1.55 150.18 M38.6 180.52 C33.35 175.56, 24.99 161.62, -0.06 141.17 M43 183.45 C30.14 171.18, 15.22 159.73, 1.73 144.96 M48.96 177.96 C31.21 167.96, 19.42 155.12, 2.59 138.11 M48.78 180.34 C31.32 165.93, 10.97 148.42, -1.55 138.92 M57.83 183.08 C29.17 166.29, 10.18 140.07, 3.96 130.99 M55.04 182.68 C35.34 163.7, 15.06 148.44, 0.11 134.42 M62.27 183.66 C41.7 167.35, 19.86 149.47, 0.46 131.5 M62.59 180.3 C42.76 164.58, 22.92 149.12, 1.74 129.46 M67.81 184.48 C47.2 160.54, 17.75 144.18, -0.82 121.89 M66.28 180.6 C48.54 166.46, 31.27 153.57, -0.11 123.88 M76.44 178.92 C45.74 159.32, 17.8 134.32, -3.31 120.42 M74.22 180.88 C53.22 167.93, 34.85 148.39, -1.35 117.62 M81.34 182.4 C50.38 154.9, 15.64 129.59, -1.75 112.28 M77.8 182.52 C48.7 157.48, 21.06 132.59, 0.1 114.31 M85.65 185.84 C63.72 167.28, 46.69 143.55, 0.33 110.31 M85.69 181.23 C52.96 151.08, 19.99 124.04, 2.13 106.83 M89.7 182.6 C56.42 153.37, 24.58 126.49, 1.09 101.3 M90.31 182.7 C70.51 165.66, 54.73 150.64, 0.12 100.28 M97.54 181.22 C77.29 162.13, 61.17 148.63, -1.08 98.69 M97.63 180.08 C63.28 150.12, 31.44 122.45, 0.75 97.48 M104.17 184.29 C66.94 151.33, 31.68 117.26, 2.87 88.85 M105.63 181.68 C71.66 153.03, 43.19 130.91, -0.29 89.99 M106.29 181.96 C84.19 155.82, 57.11 128.02, -0.77 83.83 M110.31 181.14 C75.69 154.66, 44.58 124.21, -0.53 87.59 M113.05 185.41 C71.52 146.67, 36.61 109.17, 1.98 83.6 M115.71 183.68 C86.47 161.38, 58.13 134.02, -0.99 81.29 M125.29 181.73 C75.99 137.41, 31.57 100.68, 3.3 72.78 M120.37 181.74 C92.64 155.61, 61.26 129.8, -0.39 76.81 M126.1 178.66 C90.95 148.22, 62.69 120.83, 0.09 70.93 M127.12 180.5 C102.31 161.92, 76 139.48, -1.46 69.61 M131.98 183.56 C79.36 130.49, 33.35 85.56, 0.43 65.29 M133.57 181.49 C94.5 145.26, 57.08 110.5, -1.12 66.39 M139.63 180.81 C107.96 150.48, 67.41 116.38, 2.11 61.01 M142.08 180.89 C88.95 138.42, 38.88 96.84, -0.81 60.06 M144.74 181.32 C103.16 144.13, 64 108.43, -0.86 53.91 M145.8 183.66 C107.45 148.51, 71.61 114.82, -0.66 55.24 M153.06 185 C101.69 133.85, 48.57 87.2, 0.15 48.78 M151.25 183.09 C94.38 134.59, 36.88 84.25, -1.63 47.5 M155.85 179.82 C107.09 135.62, 55 87.55, 2.85 47.47 M159.45 182.96 C100.1 133.58, 40.49 81.03, -0.47 43.89 M162.6 179.71 C120.49 142.53, 71.47 105.73, -1.98 37.86 M165.89 180.52 C131.98 151.24, 94.6 118.1, 1.05 39.55 M167.21 182.73 C105.66 122.91, 39.24 64.04, 3.17 33.34 M169.25 183.39 C101.76 127.12, 35.29 67.18, 1.77 34.28 M179.01 180.62 C121.93 130.89, 69.7 85.9, 1.19 25.02 M176.63 180.54 C122.12 132.78, 64.65 82.18, -1.46 27.32 M183.65 180.92 C123.74 134.36, 69.1 84.38, 2.37 21.23 M181 182.58 C116.18 125.56, 51.9 67.54, -1.39 22.69 M183.58 178.47 C131.86 139.16, 86.85 96.21, -2.36 14.6 M180.7 177.03 C142.06 142.45, 103.12 105.96, -0.22 17.38 M180.42 169.21 C147.88 137.79, 104.71 98.47, -1.46 13.86 M181.54 169.38 C116.87 114.92, 47.22 54.85, -0.12 13.68 M181.77 165.11 C141.83 132.66, 106.84 102.25, -0.81 5.43 M182.94 165.42 C132.94 117.98, 79.21 72.79, 1.09 8 M179.78 157.15 C142.93 128.06, 104.02 97.9, -1.13 1.5 M182.36 161.44 C139.35 122.93, 101.3 88.66, -1.18 3.09 M185.32 156.16 C113.21 95.2, 41.86 32.33, -0.48 -3.59 M182.38 155.74 C142.9 116.08, 100.23 79.51, 1.76 -1.79 M181.23 151.13 C136.14 114.36, 100.7 76.56, 8.37 -4.52 M183.19 150.77 C112.38 87.64, 44.45 31.02, 7.31 -1.31 M183.46 143.31 C123.91 97.21, 67.36 41.96, 11.4 -4.47 M183.05 144.78 C146.39 113.54, 112.39 86.57, 14.55 -3.12 M180.3 138.06 C142.6 100.83, 102.76 64.4, 22 -3.23 M184.07 140.66 C147.15 108.73, 108.43 79.1, 21.54 -1.6 M181.25 132.2 C127.9 80.64, 73.01 30.65, 23.45 0.78 M182.56 134 C144.6 100.59, 107.64 67.39, 25.36 -3.41 M182.08 125.23 C147.09 99.11, 117.36 75.43, 30.96 1.5 M181.67 129.03 C127.93 82.65, 74.09 38.22, 31.61 -0.97 M179.91 122.55 C127.07 71.86, 75.96 24.57, 38.39 -0.29 M182.26 122.86 C141.68 88.95, 99.67 53.71, 38.67 -2.2 M180.45 115.24 C136.54 82.45, 95.24 42.04, 48.32 1.01 M184.2 118.6 C142.4 77.46, 101.75 43.35, 46.25 -1.97 M184.74 114.98 C134.24 74.83, 89.32 35.37, 52.64 -0.89 M180.08 112.28 C139.17 69.63, 91.72 33.19, 49.92 -3.23 M179.51 110.59 C128.11 66.42, 81.71 20.11, 59.37 -4.86 M181.02 106.41 C150.29 81.02, 116.71 50.52, 55.48 -1.41 M179.68 102.36 C160.02 73.83, 128.9 52.21, 59.31 -5.58 M182.4 100.97 C147.6 71.58, 111.79 40.19, 60.81 -3.01 M178.91 98.7 C154.48 70.61, 126.46 52.12, 69.15 1.33 M181.64 94.93 C145.73 60.98, 106.5 31.74, 70.26 -1.87 M184.02 94.47 C162.89 69.58, 132.96 50.86, 78.31 -3.19 M183.92 89.21 C150.37 60.71, 116.87 34.93, 76.73 -0.97 M181.56 83.7 C149.31 54.3, 116.34 25.81, 83.67 -4.21 M183.96 84.23 C157.15 65.8, 132.42 42.65, 79.64 -2.26 M180.28 77.84 C153.96 53.61, 118.68 28.74, 84.8 -5.83 M183.72 78.88 C160.78 61.64, 140.37 41.86, 87.44 -2.91 M185.63 78.5 C157.22 46.18, 125.3 26.42, 90.48 -2.53 M182.23 76.03 C158.43 56.66, 135.36 36.78, 91.34 -1.9 M178.25 71.74 C153.15 45.5, 119.72 16.98, 97.95 -0.19 M181.26 69.5 C166.22 55.45, 147.38 39.45, 99.83 -0.33 M184.52 64.76 C161.94 48.31, 141.73 30.27, 103.62 1.37 M183.1 65.64 C158.17 46.84, 134.95 27.08, 104.68 -3.16 M183.73 56.86 C158.13 31.5, 130.47 7.58, 113.91 1.83 M181.1 58.88 C165.11 46.33, 148.21 29.61, 110.92 -1.08 M182.89 56.88 C161.05 32.89, 138.81 18.33, 116.38 -4.71 M181.58 54.03 C159.21 33.43, 136.04 14.45, 115.36 -2.78 M179.48 52.67 C167.67 34.67, 152.86 17.91, 126.33 -0.98 M181.94 48.46 C168.5 37.42, 154.37 24.66, 124.34 -1.45 M180.66 46.01 C175 37.44, 161.84 26.9, 134.03 0.4 M181.06 43.77 C163.53 31.22, 149.33 15.36, 128.22 -3.19 M185.8 41.34 C173.56 28.55, 154.55 16.16, 139.4 -1.7 M181.12 39.29 C166.41 24.9, 149.47 9.53, 135.36 -0.72 M180.98 32.05 C172.1 22.86, 164.97 13.7, 138.85 -3.33 M181.3 31.07 C168.94 19.97, 151.65 7.84, 142.19 -3.19 M185.48 29.16 C172.87 17.95, 159.6 9.28, 144.5 -0.68 M183.58 29.4 C171.55 20.92, 162.44 12.32, 147.62 -0.55 M182.26 23.65 C170.28 14.99, 163.86 1.68, 150.65 -1.22 M182.44 21.77 C173.58 13.66, 161.94 7.6, 154.85 -2 M180.54 15.15 C178.97 9.58, 171.38 9.84, 161.06 -4.87 M182.65 18.42 C175.26 11.39, 169.16 3.26, 161.87 -0.35 M178.17 14.22 C172.86 8.1, 168.27 -1.22, 167.69 -2.48 M180.99 11.31 C178 7.65, 169.52 1.26, 167.42 -1.83 M183.64 6.89 C181.6 2.02, 173.37 -0.13, 170.59 0.33 M183.48 7.24 C179.49 4.41, 176.93 1.41, 172.89 -3.19 M181.96 0.15 C181.59 -0.9, 179.09 -1.99, 177.61 -1.69 M182.02 0.86 C181 0.43, 180.45 -0.98, 178.09 -2.61" stroke="#ffa94d" stroke-width="0.5" fill="none"></path><path d="M3.05 -1.63 C43.04 2.13, 84.09 4.32, 184.58 -0.39 M-0.33 0.22 C58.49 2.27, 120.07 1.65, 181.39 1.02 M178.92 1.83 C176.96 38.6, 177.24 87.63, 183.8 182.38 M181.94 -1.66 C180.67 68.53, 180.17 137.09, 182.14 181.94 M184.61 182.03 C125.45 181.6, 62.93 181.54, -3.11 184.53 M183.46 183.14 C114.02 183.59, 45.81 182.12, 1.45 182.12 M-0.59 183.54 C0.16 133.64, 5.73 80.14, 2.61 1.68 M-0.06 180.67 C3.34 130.58, 2.33 82.15, -1.37 1.67" stroke="#1e1e1e" stroke-width="1" fill="none"></path></g><g stroke-linecap="round" transform="translate(643.2112290472562 214.4416947531525) rotate(0 90.91226482087177 90.91226482087174)"><path d="M0 0 C0 0, 0 0, 0 0 M0 0 C0 0, 0 0, 0 0 M-0.07 5.54 C2.37 5.66, 3.33 4.05, 4.32 1.2 M0.08 5.79 C1.93 4.23, 3.37 2.31, 5.45 -0.12 M-2.67 12.32 C-0.36 10.21, 2.42 3.57, 13.73 -0.33 M1.4 12.41 C3.72 9.32, 6.69 3.19, 9.54 -0.99 M-0.62 21.36 C2.53 10.94, 11.67 4.86, 11.81 3.83 M-1.31 17.07 C7.43 11.97, 14.02 4.28, 16.08 0.75 M-1.11 22.39 C3.81 22.12, 8.55 12.19, 23.59 -2.79 M-0.54 25.3 C9.21 12.72, 16.08 5.15, 19.69 -1.7 M-3.97 27.44 C8.85 19.53, 17 9.08, 28.11 3.04 M1.96 28.94 C7.29 21.54, 16.76 13.61, 25.46 -0.62 M-1.84 40.41 C7.36 26.9, 17.82 17.96, 30.34 0.28 M-1.05 35.29 C7.1 26.82, 16.26 18.83, 32.46 0.48 M0.69 43.91 C13.04 32.57, 17.3 21.57, 40.14 2.14 M0.29 41.13 C11.61 29.24, 20.88 21.74, 36.49 0.37 M0.63 50 C11.84 32.42, 32.29 13.12, 45.05 2.48 M-0.79 50.8 C15.34 31.08, 29.01 12.34, 43.59 1.83 M0.64 55.43 C14.49 38.29, 27.55 24.33, 44.54 -1.59 M1.19 54.64 C10.49 41.62, 22.96 27.58, 49.01 1.42 M3.3 64.17 C22.49 37.82, 35.02 13.79, 54.75 0.71 M-1.08 62.79 C20.03 38.02, 37.95 13.14, 54.74 -0.78 M-0.76 66.65 C18.37 46.49, 37.08 20.2, 54.72 0.39 M1.16 67.62 C13.3 49.01, 31.9 28.61, 56.47 0.61 M-3.41 74.48 C17.37 56.52, 29.25 35.15, 63.2 3.14 M-0.98 73.82 C23.05 46.48, 50.36 17.4, 65.16 -2.06 M2.58 83.24 C16.17 61.43, 33.4 37.7, 68.84 3.87 M0.27 80.33 C13.8 65.33, 28.56 48.22, 69.95 0.38 M3.63 83.7 C19.2 70.34, 33.3 47.47, 74.95 -2.83 M2.11 86.86 C22.97 57.84, 43.8 35.75, 75.74 -0.39 M-0.45 92.36 C23.33 71.15, 39.51 41.48, 77.78 -0.13 M-1.74 91.66 C22.83 69.32, 41.55 43.91, 78.15 -0.43 M-0.32 98.63 C17.02 78.6, 38.56 58.5, 87.26 -2.53 M-0.27 97.99 C31.33 60.9, 63.96 22.48, 85.02 -1.75 M-3.6 99.66 C16.13 79.8, 35.52 58.9, 89.22 -1.31 M1.14 104.12 C24.88 73.65, 53.21 38.65, 91.41 1.38 M2.69 111.04 C32.54 71.21, 67.59 32.62, 98.16 -2.06 M-0.99 109.39 C37.34 67.62, 75.13 28.46, 97.12 0.24 M0.18 114.06 C31.65 83.51, 54.31 49.83, 103.54 -2.14 M0.57 116.61 C25.5 88.41, 51.35 56.95, 101.68 1.38 M-2.57 118.22 C43.57 77.47, 84.24 27.44, 106.44 -4.25 M-1.23 121.9 C29.18 93.58, 52.99 62.02, 105.82 0.36 M2 124.47 C43.17 75.51, 85.35 26.94, 113.9 -1.84 M1.15 129.13 C26.57 101.18, 47.8 74.15, 110.53 -0.48 M2.03 135.96 C27.47 105.45, 46.67 73.82, 118.96 0.06 M0.08 135.96 C42.23 87.13, 82.68 38.96, 117.85 -1.51 M3.71 136.79 C24.25 109.81, 49.26 79.99, 122.2 3.63 M-0.92 139.82 C30.54 102.85, 65.38 61.54, 121.18 0.13 M3.41 143.28 C34.51 99.93, 77.43 62.84, 129.31 -2.98 M1.64 144.41 C31.12 105.05, 65.25 67.4, 127.55 0.64 M-1.87 154.23 C55.63 96.63, 104.7 32.87, 131.25 -2.2 M-1.58 153.34 C52.67 91.42, 105.43 30.55, 134.26 -0.08 M-3.08 155.65 C38.28 111.49, 84.83 67.9, 137.82 2.06 M-0.79 157.38 C29.25 124.74, 59.54 90.91, 136.97 -0.45 M2.33 166.96 C32.92 126.13, 69.13 83.03, 143.89 -1.34 M0.67 166.15 C50.65 103.73, 103.14 44.16, 144.6 -0.06 M2.7 171.71 C41.81 119.85, 85.7 76.01, 146.64 1.79 M-0.17 170.45 C57.6 103.04, 115.87 38.77, 149.87 -0.66 M-2.74 176.6 C49.72 112.45, 103.96 52.14, 156.54 -3.26 M-1.32 175.61 C53.97 116.5, 104.59 58.4, 152.56 1.39 M3.8 181.95 C40.14 130.31, 84.08 82.73, 157.66 1.44 M-0.48 181.97 C39.19 133.24, 79.34 86.53, 157.49 0.44 M4.98 180.98 C63.73 115.39, 121.16 48.27, 166.69 -0.31 M5.77 183.48 C54.28 124.62, 104.93 67.42, 163 -0.92 M8.07 182.74 C53.36 133.01, 90.67 90.58, 166.79 1.58 M11.82 183.35 C53.49 136.08, 97.62 86.25, 169.59 0.34 M15.49 179.72 C54.98 140.98, 93.43 94.72, 172.48 -2.31 M17.69 180.93 C69.61 121.47, 123.52 61.9, 175.24 -1.77 M24.42 181.48 C57.53 135.98, 96.1 93.16, 177.42 -1.22 M22.58 181.52 C67.78 124.72, 115.57 68.24, 180.41 0.2 M27.79 181.26 C63.4 140.75, 94.32 98.71, 183.87 -0.72 M26.45 182.23 C60.08 141.95, 93.98 102.75, 184.82 3.21 M32.4 183.61 C89.71 115.68, 146.51 50.4, 187.04 6.51 M32.18 182.37 C72.91 132.87, 112.24 86.52, 185.74 9.08 M40.1 184.15 C68.74 147.41, 97.26 109.84, 187.06 14.4 M37.23 182.62 C70.62 143.45, 104.94 103.56, 183.98 14.06 M45.57 183.99 C79.14 142.49, 110.06 104.38, 181.98 17.79 M42.33 182.11 C77.49 139.86, 114.88 94.7, 184.48 19.71 M51.14 182.73 C101.01 120.42, 156.53 61.41, 183.48 24.79 M46.54 180.84 C84.36 142.18, 119.38 102.66, 184.79 27.12 M50.43 179.52 C99.19 130.76, 145.94 74.19, 186.99 31.46 M52.69 180.31 C83.57 145.07, 113.5 111.69, 183.49 31.51 M60.22 180.74 C91.5 142.43, 119.41 111.66, 188.06 38.52 M59.36 183.2 C106.18 131.56, 151.61 77.71, 185.54 38.71 M63.6 177.92 C92.69 151.99, 122.48 117.58, 185.65 42.1 M64.9 181.19 C104.67 134.86, 143.68 90.71, 185.66 44.68 M66.69 186.22 C105.69 138.66, 143.07 98.6, 186.27 53.45 M71.38 181.68 C103.42 144.78, 137.84 109.13, 184.77 49.28 M71.15 183.77 C109.94 139.55, 151.92 99.38, 185.51 53.5 M73.14 182.09 C109.16 139.94, 140.78 102.47, 184.39 58.39 M79.69 178.38 C110.39 154.03, 129.12 125.61, 181.51 59.68 M79.17 183.86 C116.88 140.5, 153.39 98.03, 184.95 61.91 M85.56 186.35 C106.87 158.17, 126.87 133.83, 187.1 65.07 M83.3 182.46 C103.7 158.2, 124.71 134.31, 182.57 68.27 M92.74 179.63 C120.61 144.01, 153.51 108.16, 184.02 76.99 M89.12 181.87 C120.28 148.01, 149.46 115.38, 184.13 74.18 M94.07 180.43 C115.01 160.07, 137.7 133.74, 183.03 80.21 M96.92 184.38 C131.46 141.55, 165.82 104, 184.06 83.1 M100.12 183.63 C120.37 160.05, 140.63 141.15, 181.45 87.69 M101.24 180.24 C127.47 148.61, 154.7 116.08, 182.65 87.28 M109.33 179.32 C133.9 151.62, 153.49 123.96, 184.65 95.35 M105.84 181.54 C131.52 156.34, 153.13 130.99, 184.32 93.74 M112.86 179.29 C137.15 155.14, 162.8 128.43, 186.2 101.3 M113.19 183.85 C129.82 166.56, 144.69 149.78, 182.46 98.79 M120.75 183.54 C135.26 165.59, 151.92 143.91, 186.08 104.37 M115.51 184.03 C143.53 151.93, 168.09 124.08, 182.45 105.73 M118.73 182.76 C137.92 164.62, 154.91 144.75, 186.78 115.35 M124.23 181.96 C142.5 157.5, 165.62 135.66, 182.49 111.41 M126.47 180.87 C137.81 165.99, 154.59 153.74, 182.85 119.71 M129.01 182.3 C147.5 161.36, 165.75 139.93, 183.86 116.19 M130.27 181.47 C152.24 166.58, 160.33 145.57, 182.4 120.39 M131.25 180.22 C150.83 161.74, 169.39 142.47, 185.24 121.97 M141.4 186.36 C160.87 157.62, 175.75 140.75, 187.23 133.02 M139.05 183.17 C154.46 162.72, 174.6 139.46, 183.55 130.65 M144.75 182.06 C153.1 168.17, 166.15 158.68, 187.05 136.44 M144.77 180.63 C157.08 166.88, 169.05 153.23, 184.91 137.92 M149.19 186.29 C165.71 169.05, 179.41 151.83, 187.59 139.95 M147.96 181.84 C156.27 169.66, 167.24 160.78, 185.52 143.74 M152.2 178.46 C159.84 172.54, 163.75 169.08, 184.13 146.04 M152.93 181.58 C159.92 175.48, 168.84 167.31, 185.93 146.34 M158.24 186.2 C166.78 173.42, 171.82 169.01, 183.03 153.17 M159.69 181.89 C167.12 171.96, 174.97 165.53, 185.34 156.22 M167.4 183.82 C168.4 178.34, 170.42 171.7, 181.8 158.99 M165.49 181.84 C168.07 174.97, 172.78 171.56, 182.4 158.67 M169.71 178.86 C173.17 179.31, 182.1 174.11, 187.41 166.84 M171.82 183.28 C174.68 178.52, 176.21 172.15, 182.25 167.49 M174.62 182.3 C177.29 180.85, 178.13 179.15, 181.63 172.98 M174.62 181.1 C177.08 179.69, 178.62 177.74, 184.66 172.05 M179.93 182.8 C181.07 182.27, 183.01 180.29, 184.02 178.29 M180.44 182.3 C181.24 181.65, 182.7 180.53, 184.46 178.02 M-0.22 181.64 C-0.22 181.64, -0.22 181.64, -0.22 181.64 M-0.22 181.64 C-0.22 181.64, -0.22 181.64, -0.22 181.64 M7.62 182.43 C3.2 179.55, 3.26 178.04, 1.29 176.6 M6.77 181.43 C3.94 179.98, 1.4 177.72, 0.24 176.81 M8.73 178.59 C5.51 176.72, 3.87 172.3, -0.07 173.51 M13.33 182.56 C9.34 177.16, 5.22 176.56, -0.97 169.68 M22 182.3 C11.24 181.37, 9.79 177.68, -1.09 168.52 M16.55 179.94 C9.72 175.2, 2.88 168.31, -0.5 165.45 M26.59 184.7 C14.04 175.19, 5.99 165.91, 1.05 159.09 M23.17 182.73 C19.85 175.31, 12.96 172.66, 0.79 161.47 M30.63 184.24 C25.62 176.85, 21.26 172.61, 1.4 154.45 M30.35 183.45 C19.7 173.2, 8.09 163.56, -0.29 156.05 M39.98 184.64 C28.81 172.7, 12.28 167.37, -0.87 150.59 M38.63 182.15 C28.07 175.88, 20.78 165.3, 1.52 149.31 M44.69 181.05 C35.65 172.85, 24.81 165.01, -3.86 143.72 M42.85 182.39 C29.5 171.35, 17.9 160.16, 1.52 144.32 M49.53 180.76 C30.74 170.83, 11.07 154.2, -0.5 140.42 M49.86 180.68 C32.18 166.66, 13.55 152.48, -1.25 138.15 M53.22 182.16 C38.97 162.2, 12.1 143.15, -3.97 130.48 M57.03 182.19 C37.19 169.54, 20.98 154.61, 1.82 135.33 M59.17 184.19 C40.04 162.78, 11.32 139.78, 3.47 129.75 M62.24 182.91 C49.1 170.1, 34.18 157.85, -0.69 127.53 M70.26 179.8 C52.98 163.74, 34.2 148.81, 1.25 125.64 M65.93 179.93 C39.99 160.15, 16.63 135.94, 1.87 123.77 M76.81 183.51 C52.9 167.61, 35.95 152.63, -2.7 118.56 M74.29 183.71 C50.2 162.36, 30.86 143.5, 0.15 116.66 M75.34 184.9 C57.13 159.63, 35.07 139.83, -0.8 116.85 M77.28 180.29 C50.9 156.74, 24.81 132.56, -0.69 113.99 M87.34 182.05 C53.07 155.56, 20.15 126.77, -3.22 109.52 M86.65 181.57 C61.09 161.22, 37.81 139.74, 0.83 108.33 M90.49 184.48 C61.17 161.74, 38.83 133.2, -3.46 100.51 M90.4 180.91 C54.5 147.89, 21.11 120.08, 0.17 103.94 M97.18 185.87 C72.45 162.06, 51.34 140.1, 4.2 97.42 M98.57 182.63 C73.12 160.09, 51.11 138.69, 0.57 98.32 M101.75 182.98 C80.32 159.6, 52.99 135.33, 3.18 89.77 M105.73 181.71 C78.18 162.12, 53.87 138.54, -1.19 93.2 M107.25 185.11 C68.23 144.22, 32.25 117.44, 1.1 85.77 M108.96 181.96 C76.5 153.39, 43.59 124.66, -1.06 88.02 M112.16 183.61 C86.03 151.15, 45.86 126.05, 0.28 82.54 M117.86 182.27 C78.4 147.65, 43.84 115.45, -1.98 82.97 M121.69 178.7 C94.37 155.95, 65.58 131.18, -3.75 78.87 M121.06 180.26 C98.48 159.97, 70.5 139.5, -0.11 76.45 M130.25 184.3 C96.99 158.66, 60.84 126.78, -3.75 69.46 M127.98 181.77 C89.56 148.94, 53.7 117.16, 0.92 72.08 M132.69 182.92 C78.87 133.44, 31.01 85.69, 1.7 65.72 M135.29 180.53 C96.91 151.14, 63.29 118.12, -0.25 64.24 M143.06 183.09 C108.65 150.95, 77.63 124.24, 2.75 57.95 M140.92 180.35 C97.83 138.21, 49.95 100.59, -0.97 61 M149.38 180.88 C115.18 158.06, 80.95 126.56, 0.73 52.13 M146.13 181.39 C114.51 150.46, 77.29 122.54, -0.79 53.67 M149.21 179.05 C98.47 136.42, 42.75 90.19, 2.38 48.25 M153.71 179.97 C108.88 146.89, 71.1 113.2, 0.19 47.92 M161.98 182.31 C115.76 140.97, 72.41 103.91, 3.43 44.54 M158.72 181.19 C102.96 139.26, 51.94 92.45, -0.55 44.56 M165.83 179.82 C109.77 130.47, 49.31 84.75, -1.58 40.63 M165.18 183.84 C128.72 148.66, 90.04 115.3, 0.67 39.94 M172.67 181.37 C111.51 126.37, 54.57 77.11, 0.79 34.28 M169.98 182.69 C128.3 142.4, 82.61 101.44, 1.42 34.46 M174.16 183.85 C117.39 123.92, 59.8 75.66, 2.29 29.69 M175.59 181.17 C133.49 144.52, 91.44 110.59, 1.12 27.51 M185.04 180.56 C144.36 144.21, 96.09 112.2, 0.74 21.82 M181.01 183.16 C135.45 143.24, 88.81 101.9, -0.08 22.82 M181.92 173.28 C120.23 123.04, 62.11 71.48, 0.77 17.69 M180.81 175.94 C114.49 116.9, 43.56 58.78, -0.9 16.71 M180.07 172.15 C112.57 110.74, 48.3 48.36, 0.07 14.49 M184.24 170.94 C117.65 116.16, 49.11 56.78, 0.25 13.66 M179.91 164.35 C128.26 117.15, 77.52 72.51, -1.97 7.89 M181.21 166.24 C146.53 133.22, 109.35 100.19, -0.16 8.59 M185.49 163.44 C138.95 123.87, 103.27 86.79, -1.63 0.25 M183.38 159.89 C116.42 102.47, 46.88 42.19, 1.2 2.3 M178.87 157.11 C139.08 115.64, 96.13 74.61, -0.02 -3.16 M181.32 154.92 C111.05 92.49, 43.54 34.23, 1.48 -1.65 M179.77 151.92 C141.7 115.75, 101.74 79.96, 6.2 -5.21 M183.65 148.08 C127.34 103.79, 73.94 58.25, 6.84 -0.68 M180.24 140.82 C151.19 117.51, 116.03 83.51, 11.73 -3.06 M180.64 144.95 C144.24 107.52, 101.76 72.04, 12.22 -2.31 M184.29 142.29 C135.82 97.28, 85.58 56.63, 17.39 -3.18 M183.92 138.32 C137 99.49, 90.67 59.48, 18.75 -1.22 M181.71 132.45 C150.05 105.65, 115.3 76.6, 27.75 -3.15 M182.53 133.88 C122.07 79.55, 60.2 27.57, 27.17 -1.27 M182.55 125.8 C126.88 91.46, 82.68 45.04, 28.99 -0.13 M183.38 128.04 C131.94 88.27, 84.94 43.48, 33.18 -3.47 M183.67 122.43 C129.05 77.19, 83.46 41.62, 35.04 -4.71 M183.89 124.27 C137.49 79.22, 92 38.53, 39.16 -2.28 M181.19 116.61 C152.05 85.38, 114.85 62.36, 46.39 0.38 M181.01 115.84 C141.95 82.32, 101.9 49.38, 42.62 -2.66 M181.49 116.17 C148.39 80.52, 113.57 53.09, 51.23 -1.99 M180.9 112.48 C155.76 83.7, 126.59 59.8, 49.21 -2.36 M183.64 107.09 C135.04 68.59, 89.15 32.38, 52.97 -4.54 M180.78 105.84 C134.43 66.6, 87.35 25.5, 55.31 -4.16 M181.92 103.79 C143.37 75.22, 108.63 44.31, 60.71 -2.79 M182.58 100.58 C138.01 66.97, 96.81 31.3, 61.86 -2.38 M180.31 97.87 C155.42 72.7, 118.35 44.57, 68.52 -0.21 M182.82 95.85 C160.09 74.12, 133.72 54.66, 68.82 -3.18 M178.98 92.34 C148.62 62.28, 110.35 29.99, 74.15 1.3 M182.24 92.23 C155.72 71.17, 135.13 50.57, 73.15 -2.39 M180.84 82.37 C153.52 56.77, 118.79 24.37, 81.82 -5.17 M183.65 85.32 C148.37 54.72, 116.99 27.36, 82.85 -3.26 M177.97 81.58 C149.25 53.19, 121.22 30.45, 89.44 -4.57 M181.59 80.69 C156.79 59.61, 128.37 36.06, 87.45 -0.82 M182.17 78.75 C154.56 51.5, 122.63 22.5, 95.15 -3.23 M184.16 75.35 C150.25 47.89, 118.95 21.88, 91.73 -0.35 M179.42 72.06 C164.6 51.68, 141.64 38.41, 100.52 -1.84 M182.7 68.84 C165.68 55.13, 148.02 39.39, 98.28 -1.79 M184.44 65.89 C154.01 39.35, 129.43 18.13, 105.31 -2.11 M181.61 64.64 C155.04 39.41, 131.59 17.94, 105.41 -1.44 M179.86 57.69 C168.67 44.72, 148.34 29.93, 110.27 -5.18 M180.78 57.87 C167.42 46.05, 152.88 34.86, 113.27 -1.79 M183.06 55.45 C161.59 32.76, 136.51 12, 120.32 -0.79 M181.64 53.51 C162.03 37.5, 144.99 20.28, 118.22 -3.87 M184.83 47.2 C160.34 30.54, 147.12 17.89, 127.12 -2.51 M181.15 48.6 C163.03 32, 142.52 14.67, 122.69 -1.72 M184.69 43.85 C175.38 31.54, 157.06 26.18, 128.23 -4.83 M182.26 43.92 C168.88 31.79, 154.21 18.35, 129.6 -2.74 M181.37 36.01 C170.92 29.31, 159.77 11.67, 137.96 -5.69 M183.75 37.46 C168.09 25.86, 152.38 11.28, 136.42 -1.48 M183.26 36.22 C170.5 26, 164.65 19.83, 142.07 -5.02 M181.87 31.45 C165.85 18.24, 149.64 6.84, 141.14 -1.44 M183 27.66 C164.96 15.79, 157.89 2.87, 148.98 -1.83 M184.18 25.84 C174.5 19.74, 168.29 13.37, 148.74 -3.38 M183.9 22.47 C172.49 13.94, 167.86 12.98, 156.36 -5.43 M183.22 21.31 C174.81 16.6, 167 11.06, 153.03 -3.83 M182.51 18.43 C174.33 15.47, 172.97 7.19, 162.32 -0.6 M182.37 16.76 C174.35 10.66, 167.41 6.23, 159.04 -3.43 M179.05 9.25 C180.84 8.41, 175.43 3.88, 168.15 -2.03 M181.46 12.32 C177.49 7.85, 176.3 3.92, 165.1 -0.74 M183.43 5.75 C180.57 3.92, 178.28 1.74, 172.97 -3.89 M182.59 6.74 C177.87 4, 175.75 0.67, 172.76 -1.99 M181.64 1.66 C181.33 0.27, 179.64 -1.36, 178.16 -3.3 M181.58 0.91 C180.81 -0.26, 179.38 -1.68, 178.11 -2.14" stroke="#ffa94d" stroke-width="0.5" fill="none"></path><path d="M2.91 2.22 C59.45 0.82, 120.48 -2.51, 184.39 -0.9 M-0.35 -1.44 C53.16 -0.83, 106.62 -1.76, 183.4 1.56 M180.84 -3.53 C181.45 58.94, 181.9 118.38, 179.51 180.08 M182.83 0.97 C179.85 57.49, 177.91 118.5, 180.82 182.03 M184.78 183.14 C132.78 181.3, 88.04 182.79, 1.77 184.49 M183.27 180.74 C133.68 177.35, 87.43 179.92, 0.49 179.98 M-0.65 178.96 C0.52 130.66, -3.1 85.31, 2.29 -2.84 M-1.74 181.61 C-1.84 127.85, -2.26 74.45, -0.16 0.72" stroke="#1e1e1e" stroke-width="1" fill="none"></path></g><g stroke-linecap="round" transform="translate(673.2112290472562 242.4416947531525) rotate(0 90.91226482087177 90.91226482087174)"><path d="M0 0 C0 0, 0 0, 0 0 M0 0 C0 0, 0 0, 0 0 M1.06 6.72 C1.76 4.29, 3.31 4.2, 3.44 0.24 M0.12 6.89 C2.07 3.95, 2.24 3.03, 4.99 0.18 M0.04 13.38 C1.6 11.38, 3.9 4.19, 10.27 2.24 M-0.62 11.27 C4.89 7.39, 8.79 3.57, 10.55 0.56 M-2.76 18.88 C7.17 11.29, 6.44 7.16, 13.59 3.41 M-0.71 19 C3.48 13.5, 9.38 9.68, 16.23 -0.93 M-1.65 21.99 C10.9 15.92, 11.45 10.89, 17.43 3.47 M1.24 25.21 C6.45 15.69, 16.1 5.39, 21.24 1.55 M1.91 26.56 C9.53 21.43, 16.2 14.75, 26.18 -2.66 M-1.01 28.84 C4.43 23.7, 11.32 17.85, 24.68 1.71 M-2.52 35.53 C4.96 31.2, 14.02 18.25, 31.48 -1.47 M1.07 36.76 C5.85 28.93, 16.81 19.54, 31.16 -2.09 M3.2 46.05 C10.56 30.77, 19.8 25.73, 38.41 -1.73 M0.86 41.62 C8.5 32.14, 17.1 21.25, 37.75 -1.01 M-0.75 52.23 C15.17 39.4, 22.61 20.43, 46.22 0 M-1.12 47.86 C14.83 30.91, 29.34 16.91, 43.5 -1.89 M4.01 56.38 C10.93 36.73, 27.81 21.25, 50.57 1.86 M-0.39 54.16 C14.7 37.12, 35.63 14.9, 48.44 -1.58 M-3.74 59.51 C12.96 43.44, 31.93 23.63, 56.3 -0.82 M-1.47 59.27 C16.43 41.69, 34.82 19.55, 55.09 -1.14 M-0.67 64.59 C20.94 51.15, 39.08 26.94, 55.68 -0.98 M-1.08 68.42 C19.4 42.45, 42.37 19.79, 59.41 -0.11 M-1.44 71.28 C11.76 54.01, 28.22 44.69, 65.13 -1.4 M-1.83 71.38 C17.94 54.81, 33.61 35.6, 64.38 1.23 M2.89 78.71 C24.66 54.65, 43.59 27.72, 71.52 -0.11 M-1.95 80.45 C17.99 55.74, 37.63 33.98, 66.93 -0.35 M0.92 88.7 C13.64 68.42, 35.16 43.75, 76.86 -3.96 M1.56 84.95 C17.95 64.56, 36.05 41.08, 75.46 -1.32 M3.17 88.28 C28.06 54.67, 60 19.51, 76.62 1.91 M-0.08 92.97 C28.13 58.04, 55.17 26.92, 80.87 -1.64 M-1.8 100.92 C28.42 61.59, 66.16 24.82, 88.4 0.55 M1.44 97.88 C25.44 64.09, 51.35 35.45, 86.03 1.02 M-1.91 101.32 C20.98 74.47, 49.17 51.56, 90.25 -2.28 M1.75 104.31 C24.17 78.48, 43.05 52.89, 88.77 1.02 M-3.99 106.12 C25.13 86.87, 46.44 60.95, 97.39 0.39 M-1.86 110.18 C28.52 78.93, 57.98 47.14, 95.42 -1.54 M2.29 113.14 C19.35 91.69, 44.18 67.63, 100.44 -0.76 M-1.64 117.16 C21.19 93.31, 41.9 66.29, 99.76 1.02 M-1.3 123.94 C26.99 90.87, 46.56 63.97, 110.23 3.12 M-0.36 120.48 C24.26 97.99, 43.59 69.38, 104.58 1.58 M-1.48 131.01 C36.14 93.09, 64.21 48.04, 111.98 -2.38 M1.54 127.35 C41.86 76.4, 87.82 28.42, 112.62 0.12 M4.06 136.54 C30.82 99.25, 59.74 74.12, 117.43 4.27 M0.22 135.04 C32.51 90.13, 69.29 48.5, 115.44 2.09 M-3.76 139.21 C48.61 83.81, 90.48 30.83, 122.38 3.28 M-1.3 140.84 C35.11 104.92, 67.85 65.39, 123.73 0.47 M2.62 145.35 C40.02 105.95, 76.87 59.83, 128.2 0.36 M-0.24 144.52 C37.04 104.33, 73.62 58.96, 125.52 1.79 M3.32 151.62 C42.58 103.36, 83.63 53.47, 130.2 -1.9 M0.79 154 C49.07 93.37, 99.44 35.99, 131.26 0.51 M0.85 156.12 C30.31 120.4, 60.49 87.84, 134.88 1.31 M-0.8 160.46 C35.7 119.66, 68.86 79.33, 136.17 1.05 M-1.24 167.77 C39.52 118.42, 75.03 78.78, 141.84 -1.47 M1.25 163.71 C44.53 114.98, 86.44 66.14, 142.51 -0.59 M0.43 173.72 C31.81 131.01, 69.75 92.83, 146.16 3.5 M-1.06 169.59 C43.38 124.4, 82.61 80.79, 146.57 0.24 M-0.63 176.87 C40.8 129.35, 87.06 79.99, 156.76 0.64 M-0.59 177.48 C56.37 109.51, 113.97 44.14, 154.72 -0.03 M1.77 180.2 C53.35 127.53, 102.69 63.2, 156.67 0 M-0.32 182.36 C48.99 130.21, 96.83 72.39, 157.76 -0.37 M5.98 185.66 C49.3 137.16, 89.93 87.79, 161.96 -2.81 M4.47 183.16 C38.32 143.8, 72.36 105.31, 163.61 -1.52 M8.64 184.04 C46.69 143.29, 80.38 105.26, 168.81 0.2 M12.56 181.46 C57.04 124.79, 106.37 69.15, 168.59 -0.14 M15.21 182.41 C54.71 136.88, 93.87 91.54, 171.98 -2.86 M14.83 181.91 C49.82 141.11, 84.49 99.15, 176.33 -1.71 M19.73 184.56 C68.36 123.18, 120.41 67.94, 179.01 2.58 M21.11 181.99 C57.24 140.66, 96.68 97.36, 179.39 -1.4 M25.68 184.19 C80.47 124.6, 129.65 66.09, 186.51 1 M28.47 181.18 C59.88 144.12, 96.57 100.77, 182.7 1.98 M30.88 179.12 C80.22 127.49, 121.15 77.96, 184.38 9.35 M33.37 181.36 C75.42 129.82, 115.96 81.59, 185.24 8.04 M35.17 184.86 C72.54 139.51, 104.64 103.27, 181.22 17.42 M36.54 182.72 C79.95 137.65, 118.27 91.77, 182.59 14.43 M45.45 181.3 C84.33 130.28, 133.11 78.99, 184.55 22.22 M41.97 180.58 C77.57 139.26, 111.89 97.36, 184.41 20.89 M49.08 180.57 C85.43 141.63, 120.37 97.96, 181 26.61 M48.42 181.82 C77.34 143.59, 112.45 107.33, 182.37 26.77 M53.37 180.29 C80.63 149.33, 111.24 110.57, 182.73 35.5 M54.7 181.04 C100.59 124.93, 152.72 67.41, 182.97 33.1 M59.55 184.85 C103.71 132.83, 141.53 89.52, 182.81 34.6 M57.67 180.71 C108.91 122.43, 156.19 66.82, 184.86 36.59 M66.66 182.52 C107.25 134.13, 152.57 88.8, 184.56 44.81 M62.72 181.23 C98.02 141.07, 138.37 98.42, 182.95 44.01 M65.52 185.03 C99.18 147.77, 124.61 118.72, 183.73 53.42 M70.39 182.85 C99.58 149.79, 129.18 113.95, 182.45 50.33 M75.01 182.55 C103.1 143.6, 134.13 112.53, 181.58 56.92 M73.35 184.1 C105.51 146.01, 136.95 109.68, 184.92 56.77 M83.51 178.44 C115.45 148.64, 147.81 109.39, 182.47 63.77 M78.56 183.75 C112.98 139.21, 151.03 100.1, 182.53 64.84 M86.51 184.03 C117.39 148.01, 141.93 112.18, 181.94 65.61 M85.67 182.89 C106.94 159.27, 127.83 134.29, 182.94 66.82 M90.66 181.85 C116.9 150, 141.02 124.44, 184.91 75.82 M91.76 183.35 C124.43 140.73, 161.11 98.98, 184.31 75.51 M92.04 180.14 C126.86 145.09, 165.81 107.27, 185.87 84.68 M94.41 181.5 C130.66 146.03, 165.23 106.28, 184.09 82.74 M104.88 183.31 C119.21 157.35, 142.3 139.88, 182.33 86.22 M101.18 181.98 C131.94 145.75, 162.68 112.06, 185.33 85.35 M107.87 182.52 C131.75 150.44, 163.78 111.66, 180.36 96.91 M104.6 183.45 C133.39 154.65, 154.72 126.88, 182.99 95.23 M112.82 182.1 C132.71 159.08, 155.83 134.64, 182.74 102.9 M111.67 180.35 C129.38 162.03, 145.9 145.69, 184.73 97.75 M119.02 182.1 C130.23 162.91, 143 149.52, 183.14 106.58 M118.88 180.63 C138.59 159.29, 163.19 133.32, 181.95 105.61 M125.89 180.76 C143.79 161.35, 160.17 134.97, 186.27 113.76 M121.68 183.52 C136.44 166.99, 148.97 151.49, 182.62 113.23 M127.28 181.03 C145.63 164.37, 158.12 145.16, 181.37 120.47 M129.51 181.29 C141.22 166.99, 154.17 153.59, 185.54 118.84 M132.23 185.06 C147.92 161.03, 165.52 139.87, 179.77 123.7 M131.28 180.96 C149.18 162.45, 161.29 145.31, 182.69 122.42 M135.18 184.72 C155.59 162.19, 167.87 146.18, 186.95 132.63 M138.39 182.08 C152.9 164.55, 170.49 146.99, 183.98 128.24 M144.74 180.05 C158.98 164.43, 174.87 144.83, 180.84 135.15 M142.19 182.48 C156 166.25, 172.23 148.54, 184.32 134.58 M145.98 185.83 C160.17 172.36, 168.14 158.62, 179.87 141.09 M149.03 184.01 C157.6 171.26, 167.68 159.57, 184.43 144.26 M153.09 178.01 C161.68 174.06, 175.45 160.55, 184.53 145 M153.73 182.29 C161.88 173.83, 167.4 167.44, 185.15 146.61 M155.72 180.27 C171.84 167.83, 175.84 159.59, 182.86 152.88 M158.58 180.47 C166.09 173.54, 173.11 166.47, 185.67 155.49 M163.67 178.47 C167.52 173.24, 176.38 165.72, 186.6 161.42 M166.85 182.97 C169.17 175.77, 175.67 166.78, 184.43 159.77 M169.17 183.2 C177.48 177.21, 179.81 171.13, 185.4 164.54 M169.8 181.22 C175.84 177.79, 180.62 172.85, 182.11 165.11 M175.68 183.31 C177.02 179.46, 182.5 174.86, 183.21 172.7 M175.99 182.85 C176.84 179.02, 178.4 176.56, 182.9 172.62 M181.52 181.98 C182.77 180.38, 183.88 180.45, 184.61 177.66 M180.33 181.82 C181.9 181.09, 183.17 180.09, 183.63 178.88 M-0.22 181.64 C-0.22 181.64, -0.22 181.64, -0.22 181.64 M-0.22 181.64 C-0.22 181.64, -0.22 181.64, -0.22 181.64 M5.05 180.91 C4.84 179.26, 3.4 179.52, -1.34 176.26 M5.49 181.88 C3.46 180.34, 2.74 178.93, 0.42 177.43 M12.73 184.21 C7.62 177.71, 5.75 173.38, -0.04 167.97 M11.58 182.68 C8.38 180.23, 6.8 177.49, -0.19 169.87 M15.3 179.37 C10.63 179.49, 4.3 168.09, 2.84 167.08 M16.5 183.74 C12.67 179.67, 10.32 176.83, 0.05 166.68 M24.63 182.24 C18.22 176.56, 12.01 168.88, 1.24 162.41 M25.75 182.07 C17.26 175.19, 7.37 167.4, 1.56 159.05 M32.88 184.39 C20.15 174.8, 6.61 167.12, 0.75 157.98 M31.64 181.23 C18.02 170.25, 7.21 163.03, -0.79 154.11 M36.47 181.74 C29.85 177.93, 21.2 163.57, 2.59 146.52 M38.58 180.07 C24.71 170.84, 12.72 162.05, 0.36 148.48 M39.5 178.14 C28.14 174.37, 20.71 163.83, 2.2 145.4 M41.51 180.66 C27.82 169.7, 12.49 156.88, -1.34 145.52 M52.28 182.09 C39.64 169.73, 21.18 160.21, -0.29 142.94 M47.62 181.78 C37.9 173.79, 26.17 161.11, -0.24 138.33 M54.58 185.68 C35.96 168.11, 23.42 148.83, -1.52 135.11 M54.88 182.62 C41.93 167.96, 31.18 159.41, -0.91 135.2 M62.34 182.06 C41.45 165.5, 26.89 153.4, 0.29 128.48 M62.05 180.95 C46.08 169.54, 29.68 154.09, 0.38 127.34 M66.51 182.86 C51.29 169.51, 32.61 152.53, 0.13 125.64 M66.65 183.39 C46.4 165.26, 30.15 147.21, 1.59 123.04 M76.94 181.83 C55.74 166.28, 41.92 150.98, -3.04 118.73 M72.21 181.65 C46.04 160.63, 23.49 136.89, 0.98 117.91 M77.22 180.24 C57.75 164.58, 35.28 142.1, -3.08 116.27 M78.31 182.83 C63.16 166.59, 45.15 154.83, -0.41 114.54 M83.36 180.37 C63.13 165.68, 39.8 141.04, 3.89 107.99 M86.54 183.57 C57.64 158.59, 33.81 135.3, -1.04 108.01 M91.1 180.46 C56.73 148.72, 19.74 116.62, -2.09 99.02 M91.01 181.77 C71.81 162.94, 51.59 148.75, -1.07 100.86 M98.39 179.37 C61.42 156.22, 28.87 118.93, -2.26 98.67 M96.12 182.02 C75.79 163.54, 51.03 143.34, -0.66 96.6 M100.59 179.58 C84.05 161.67, 55.48 145.19, -0.64 90.68 M103.02 183.32 C63.75 147.89, 23.12 112.17, 1.8 90.75 M109.3 180.6 C79.43 152.7, 45.95 120.93, -1.57 85.93 M111.65 181.26 C76.57 155.26, 45.75 127.43, -0.51 88.27 M115.08 180.45 C88.88 159.97, 57.23 131.58, 0.81 84.76 M114.72 182.25 C83.53 153.69, 51.62 124.52, -1.21 82.62 M122.65 178.58 C81.08 151.25, 46.34 121.37, -2.9 73.66 M120.21 183.18 C85.91 151.15, 44.97 118.12, 1.18 77.22 M125.48 180.62 C91.38 148.18, 54.72 120.77, -2.94 67.55 M129.13 180.91 C86.73 142.31, 43.61 106.74, 0.85 68.48 M132.96 185.25 C86.48 142.49, 31.46 93.13, -3.82 66.52 M134.01 183.96 C99.58 152.56, 65.67 122.6, -1.44 67.28 M141.2 185.74 C105.23 152.42, 67.3 118.87, 2.13 58.08 M140.89 182.65 C103.48 151.79, 67.95 121.08, -0.7 57.98 M143.76 179.33 C94.15 138.99, 47.14 93.68, 1.32 53.91 M147.35 183.42 C97.71 145.34, 52.04 104.26, -1.87 55.91 M151.04 178.57 C115.18 149.48, 81.35 122.03, 1.15 51.8 M152.91 180.54 C107.79 145.95, 69.09 111.37, -1.97 50.24 M156.39 182.21 C104.27 134.52, 49.32 89.39, -2.26 42.22 M157.37 181.11 C94.28 127.79, 29.78 73.2, -1.07 42.4 M163.49 181.9 C105.22 123.65, 43.12 72.08, -0.78 38.22 M165.53 181.53 C122.06 145.29, 79.47 107.63, 0.44 38.55 M173.09 183.28 C107.07 123.3, 41.12 73.26, -2.84 30.18 M171.92 181.18 C124.79 139.05, 78.83 98.71, -0.18 34.6 M179.45 179.7 C143.49 155.58, 103.83 123.07, 2.81 29.3 M176.99 180.84 C108.78 125.14, 41.97 67.26, -0.16 28.87 M179.42 181.5 C114.28 118.62, 44.67 61.18, -1.28 24.23 M181.37 181.68 C145.6 153.78, 111.92 119.12, 0.64 23.87 M184.73 174.19 C132.56 131.14, 78.65 85.96, 0.87 16.46 M181.39 174.78 C126.78 130.06, 76.64 85.99, 0.48 17.88 M185.28 172.31 C130.27 123, 80.34 76.4, -2.12 11.24 M181.58 171.8 C124.68 120.11, 68.47 71.99, 1.46 13.71 M182.38 167.77 C113.26 102.53, 38.1 37.95, -0.47 6.06 M180.65 164.19 C129.36 117.37, 69.84 70.05, 0.75 7.74 M180.5 159.34 C144.37 123.75, 110.12 96.06, -0.39 -1.1 M182.66 159.79 C142.14 122.41, 97.71 83.81, -0.73 2.06 M181.7 153.55 C128.16 105.86, 66.73 52.55, 1.5 -1.01 M180.77 154.57 C138.8 115.54, 91.37 76.09, 3.47 -0.74 M185.51 149.67 C126.78 103.04, 74.41 56.08, 8.03 -2.72 M183.05 151.41 C133.66 109.43, 82.71 65.74, 11.22 0.14 M182.89 147.39 C134.9 103.75, 83.94 59.22, 18.45 2.16 M182.86 144.9 C144.4 110.5, 106.63 76.23, 14.41 -0.18 M183.35 137.65 C122.62 88.1, 67.44 34.23, 19.21 2.33 M181.34 140.4 C147.13 108.58, 113.95 81.35, 20.54 -1.34 M182.02 131.84 C128.36 85.51, 68.88 39.92, 26.08 0.33 M181.48 131.89 C124.5 82.07, 69.7 31.35, 28.5 -0.91 M179.44 124.51 C122.94 76.23, 67.94 30.31, 30.34 1.34 M183.63 128.44 C142.14 90.31, 96.57 50.33, 33.07 -2.42 M185.27 124.97 C136.49 76.56, 86.16 40.46, 42.24 3.02 M181.81 124.56 C129.78 74, 78.23 26.47, 42.14 -2.24 M184.23 121.64 C136.69 75.44, 82.72 29.34, 45.82 -2.5 M181.7 119.05 C144.17 83.16, 107.69 52.93, 48.22 -1.97 M178.71 109.03 C139.92 77.65, 97.09 41.62, 50.57 -3.11 M182.57 111.15 C135.28 69.43, 92.28 31.71, 54.02 -2.07 M179.36 108.35 C139.66 73.34, 101.31 32.76, 61.96 2.8 M182.97 105.81 C135.21 63.84, 84.85 23.7, 58.56 0.32 M183.49 97.71 C157.96 81.26, 132.14 54.41, 60.62 1.29 M182.45 100.7 C143.45 65.25, 105.54 33.01, 63.62 -0.95 M181.63 96.92 C143.68 59.4, 100.92 28.38, 72.92 -0.44 M183.37 95.73 C145.59 65.17, 107.47 33.54, 71.51 0.43 M184.01 89.68 C148.59 67.35, 119.84 34.32, 78.17 -3.09 M180.59 92.03 C145.06 56.54, 104.12 24.02, 75.54 -1.08 M179.07 84.38 C153.63 61.3, 120.05 35.82, 83.37 2.17 M183.25 85.45 C151.62 60.33, 122.63 31.5, 82.06 -0.68 M183.94 76.33 C152.04 53.71, 123.65 26.43, 86 3.21 M180.51 81.59 C152.9 53.98, 121.79 31.18, 88.46 -1 M178.96 76.51 C162.49 51.33, 135.82 37.18, 93.21 1.8 M183.3 77.25 C149.97 47.82, 117.27 20.91, 93.62 -0.44 M182.18 65.82 C160.76 53.93, 144.9 37.17, 104.4 2.38 M182.08 71.47 C150.51 42.55, 118.23 12.83, 99.71 0.33 M183.85 63.84 C161.44 41.78, 134.65 25.22, 106.37 -1.01 M180.6 63.01 C162.03 48.6, 142.67 31.58, 106.68 -1.99 M181.66 59.71 C155.37 36.66, 133.37 16.49, 116.15 0.69 M182.34 58.03 C161.26 38.87, 136.65 20.37, 114.25 0.93 M183.51 53.64 C172.74 44.4, 154.58 33.01, 119.73 1.09 M180.59 52.26 C166.8 41.55, 152.52 25.69, 119.9 -0.8 M186.26 50.33 C162.86 30.17, 139.92 12.47, 123.28 -2.82 M184.41 49.28 C160.91 31.6, 141.64 11.38, 125.39 0.45 M178.97 45.93 C170.9 34.6, 149.9 18.98, 127.71 2.15 M181.11 44.13 C170.91 34.42, 160.39 22.84, 130.53 -0.76 M181.41 40.75 C166.59 25.59, 147.64 10.19, 139.85 0.27 M182.05 36.84 C167.12 22.29, 148.27 5.66, 139.6 0.8 M182.54 33.51 C166.6 22.67, 157.87 10.22, 143.23 -3.66 M180.35 31.4 C170.2 18.57, 153.78 8.95, 143.46 -0.8 M179.02 26.11 C172.43 19.57, 167.82 11.14, 148.87 1.18 M180.66 29.28 C175.42 22.85, 168.03 16.12, 149.45 -0.42 M185.73 25.89 C173.37 16.35, 169.41 8.3, 158.44 2.54 M180.9 20.45 C173.52 12.86, 164.24 5.48, 155.95 -2.21 M186.24 18.32 C180.22 8.83, 173.44 10.68, 162.88 1.84 M182 16.82 C178.15 10.25, 169.82 8.38, 162.13 -2.06 M183.21 9.56 C179.18 6.57, 170.56 2.7, 169.42 0.94 M181.73 11.32 C176.25 5.2, 171.58 3.35, 170.22 -0.03 M181.93 6.26 C180.82 4.92, 175.35 0.03, 173.48 -2.35 M183.43 6.94 C179.88 4.69, 175.83 0.83, 173.24 -1.38 M182.01 1.1 C181.12 0.11, 180.57 -0.39, 180.67 -0.07 M182.07 0.97 C181.86 0.69, 181.24 0.12, 180.44 -0.53" stroke="#ffa94d" stroke-width="0.5" fill="none"></path><path d="M-0.22 3.94 C64.31 -0.9, 130.89 6.06, 180.96 2.64 M1.25 -0.66 C53.88 -0.05, 105.79 0.63, 181.94 -0.71 M182.87 1.7 C177.74 70.53, 175.62 135.4, 179.62 180.3 M183.57 -0.89 C180.92 69.99, 183.06 137.91, 183.29 182.86 M183.93 183.29 C119.51 176.46, 56.24 177.28, 2.31 180.64 M180.62 180.89 C124.29 182.94, 64.72 184.1, -1.96 182.52 M-0.37 184.12 C3.48 141.95, 5.97 107.94, -0.31 3.65 M-1.2 181.95 C1.1 135.59, 0.54 94.79, -1.05 -1.13" stroke="#1e1e1e" stroke-width="1" fill="none"></path></g><g stroke-linecap="round" transform="translate(1109.390819170192 187.14136716746145) rotate(0 98.73267469793609 92.2125924065628)"><path d="M0 0 C0 0, 0 0, 0 0 M0 0 C0 0, 0 0, 0 0 M-0.53 6.85 C1.82 4.07, 3.34 2.15, 5.21 0.92 M0.07 7.05 C2.07 3.79, 3.27 2.65, 5.05 -0.2 M2.12 11.43 C4.62 8.72, 10.32 0.06, 11.23 0.83 M-0.76 13.05 C3.72 9.72, 3.64 7.44, 10.1 1.47 M-3.59 20.59 C8.28 11.5, 5.54 6.69, 15.98 1.19 M-1.91 16.96 C4.59 10.94, 10.16 4.87, 16.54 0.41 M-1.77 27.09 C7.28 21.63, 9.22 11.04, 24.55 3.15 M-1.28 24.88 C8.73 17.01, 17.9 7.75, 20.17 1.76 M-2.21 33.65 C7.87 21.48, 16.59 9.42, 25.74 -0.41 M-0.99 28.77 C6.66 22.65, 15.04 17.01, 27.66 0.56 M0.83 33.55 C6.44 27.34, 10.02 22.19, 28.33 1.38 M-0.81 36.59 C11.14 27.71, 20.45 13.07, 30.77 0.72 M2.61 45.27 C4.12 31.31, 15.38 19.19, 39.58 4.1 M-0.2 42.55 C10.39 31.19, 16.6 21.92, 37.26 1.19 M1.5 51.28 C10.5 33.52, 17.59 21.99, 45.87 -1.48 M0.02 49.19 C11.19 33.53, 24.66 19.86, 44.35 1.69 M3.02 57.23 C14.91 36.76, 31.61 20.04, 47.04 1.14 M-1.48 53.75 C18.06 32.51, 35.92 10.66, 45.75 0.45 M-1.88 58.47 C18.06 34.83, 35.46 17.89, 53.07 0.62 M0.44 62.07 C12.47 45.65, 27.21 29.85, 53.12 -0.02 M-0.74 67.31 C11.18 46.16, 31.55 28.75, 54.39 -3.63 M-1.77 66.95 C15.38 50.61, 32.99 31.13, 59.13 0.83 M-2.05 75.76 C15.26 61.31, 25.91 44.63, 66.59 0.96 M1.97 74.25 C13.89 57.56, 28.58 37.34, 62.91 -0.7 M2.3 82.3 C20.71 57.17, 41.3 37.6, 68.67 -1.31 M1.58 80.84 C24.27 49.17, 53.57 17.91, 69.06 1.24 M1.04 87.08 C26.65 59.18, 49.23 25.81, 71.82 -3.94 M-0.26 85.11 C24.84 51.58, 53.07 19.31, 73.16 -0.26 M-2.12 90.48 C30.8 61.67, 60.53 27.28, 81.64 -3.73 M-1.14 92.74 C28.17 56.62, 55.16 28.16, 80.79 0.93 M-0.5 96.32 C31.03 55.96, 65.71 20.71, 86.92 1.72 M-2.12 99.18 C31.91 63, 62.94 25.06, 84.97 1.72 M-2.84 106.64 C22.64 69.91, 55.85 43.9, 93.85 -3.48 M-1.36 103.62 C33.88 66.31, 64.05 32.95, 89.22 -0.45 M-3.83 108.41 C24.28 77.26, 47.34 50.48, 98.79 -3.03 M0.09 111.08 C20.55 83.9, 43.99 62.68, 97.03 -1.9 M4.04 116.81 C24.21 92.98, 45.43 60.1, 98.55 2.1 M-0.85 114.8 C35.22 74.03, 75.39 29.45, 98.86 1.1 M0.67 125.74 C41.23 71.7, 85.43 19.63, 103.09 -3.9 M1.72 122.08 C28.66 87.63, 53.73 59.79, 105.67 -1.95 M-1.49 127.03 C30.77 86.1, 66.48 53.51, 113.79 2.91 M-0.46 128.73 C27.12 93.96, 57.91 59.68, 111.87 1.98 M0.03 137.23 C26.02 102.23, 49.65 75.66, 119.55 1.39 M0.43 133.07 C34.93 97.25, 65.66 58.41, 116.2 -0.07 M3.29 144.33 C28.79 109.69, 63.79 75.97, 118.33 0.12 M-1.4 141.98 C34.71 100.33, 69.72 60.07, 120.01 -1.05 M-1.97 143.04 C48.91 94.73, 91.92 47.4, 130.65 0.13 M-0.52 145.32 C40.77 100.97, 79.49 59.34, 125.51 0.15 M-0.1 149.58 C43.63 107.14, 83.82 55.83, 131.8 -1.67 M-1.14 153.61 C37.57 111.3, 75.74 68.42, 132.65 1.02 M-1.32 155.73 C49.75 97.04, 98.78 43.64, 134.09 1 M-0.83 157.39 C49.58 104.89, 95.53 50.44, 138.07 1.65 M2.79 164.77 C35.52 118.82, 74.9 74.7, 142.33 -2.95 M0.59 163.08 C45.21 109.99, 93.01 54.01, 144.64 -1.68 M0.1 171.2 C31.93 130.5, 69.12 94.62, 150.72 -0.32 M-0.77 169.48 C37.12 130.38, 75.59 88.55, 148.82 -0.28 M-2.61 177.2 C46.8 125.23, 92.32 75.47, 154.67 -1.29 M-1.06 176.55 C55.72 113.59, 113.44 51.66, 153.32 -0.31 M0.17 185.04 C55.42 124.98, 104.31 61.27, 158.63 1.8 M-0.8 184.3 C45.13 132.09, 89.84 82.48, 158.41 0.58 M1.1 187.88 C55.57 130.69, 98.09 82.9, 166.87 1.54 M4.01 186.28 C46.44 134.44, 92.41 83.31, 164.12 0.07 M7.16 184.57 C68.42 113.86, 126.5 45.65, 171.66 2.09 M9.72 183.58 C60.99 126.78, 114.81 68.74, 168.6 0.32 M11.9 186.37 C48.75 144.4, 86.15 95.18, 177.8 0.17 M14.34 184.47 C52.78 141.21, 89.18 100.08, 173.54 -1.59 M19.41 185.79 C68.05 131.13, 111.36 78.68, 177.24 -1.84 M19.1 185.66 C62.13 131.32, 108.34 81.76, 179.11 -1.19 M24.2 184.27 C89.53 106.66, 155.73 38.02, 186.85 -1.52 M25.37 186.3 C87.93 115.54, 148.01 44.04, 186.14 0.51 M29.22 186.62 C88.14 114.56, 142.04 51.08, 189.97 -3.17 M30.19 185.02 C70.54 135.35, 113.08 86.74, 191.05 -0.47 M33.59 187.6 C86.97 128.79, 134.38 70.87, 194.05 3 M34.49 185.74 C86.71 129.07, 132.29 74.24, 197.92 -0.75 M44.08 186.19 C86 129.89, 134.08 72.05, 195.29 4.82 M41.88 184.88 C75.45 144.26, 112.17 105.9, 196.95 3.42 M49.56 185.27 C107.02 119.64, 158.06 57.49, 198.09 6.25 M47.05 183.66 C101.79 120.78, 161.5 52.9, 197.65 10.88 M52.16 186.29 C96.2 127.31, 143.59 73.78, 198.59 19.14 M51.03 185.49 C95.44 132.85, 141.94 85.46, 196.64 15.79 M55.39 181.84 C99.92 134.33, 145.36 79.84, 199.68 20.06 M56.43 184.64 C95.25 144.29, 130.26 102.09, 196.51 22.02 M62.2 184.64 C105.1 133.21, 151.68 85.32, 196.86 26.06 M62.63 183.92 C98.78 141.68, 135.72 97.74, 199.39 29.56 M69.14 185.44 C110.5 136.43, 148.93 91.01, 196.81 35.81 M67.47 183.26 C115.14 130.48, 161.08 77.99, 197.94 32.42 M69.77 181.43 C106.61 150.99, 138.29 111.39, 201.44 36.78 M72.79 184.6 C120.55 134.9, 164.21 83.56, 197.95 39 M81.67 185.65 C125.39 131.53, 174.59 71.08, 199.06 43.54 M79.82 185.54 C116.75 138.22, 152.59 95.33, 199.39 48.11 M87.07 180.75 C126.08 128.52, 169.09 79.14, 201.7 53.83 M82.47 185.21 C121.7 139.36, 161.99 92.28, 196.46 54.33 M91.18 181.62 C128.65 140.42, 166.26 95.38, 194.44 59.09 M90.38 186.05 C114.45 157.61, 138.39 125.95, 199.93 58.29 M94.84 181.82 C122.6 147.55, 152.65 123.64, 196.92 63.24 M94.44 183.49 C124.27 150.58, 151.09 117.25, 199.47 64.67 M96.82 184.13 C135.96 137.65, 173.62 94.41, 195.48 69.87 M97.74 183.76 C135.49 142.45, 175.64 96.12, 196.46 68.62 M105.93 187.78 C127.66 157.23, 154.76 122.63, 201.35 80.81 M104.45 186.34 C144.46 144.59, 178.38 103.03, 199.01 77.61 M106.51 183.21 C129.82 159.81, 149.62 140.63, 198.81 83.3 M110.1 185.98 C137.02 153.43, 161.86 124.87, 198.82 81.86 M111.96 186.81 C150.04 152.95, 173.78 117.97, 198.65 92.81 M115.83 186.75 C142.76 148.16, 175.93 112.91, 197.42 88.36 M120.88 188.16 C142.37 160.69, 154.73 147.9, 195.76 91.77 M121.28 184.42 C141.85 159.56, 165.27 137.69, 196.48 94.89 M127.28 188.56 C139.99 162.17, 161.63 140.07, 197.2 104.79 M127.56 184.36 C146.47 161.61, 167.46 136.14, 198.65 100.49 M133.34 187.5 C154.56 159.92, 170.43 139.5, 200.46 109.2 M130.75 183.16 C149.21 162.18, 170.31 142.61, 198.55 107.23 M135.67 181.19 C150.12 167.78, 171.54 145.99, 197.52 110.28 M136.91 186.45 C152.92 163.21, 167.8 143.27, 199.63 114.7 M138.05 181.02 C162.38 162.19, 179.57 143.93, 196.43 120.01 M143.58 182.64 C157.02 165.08, 171.66 150.11, 196.42 118.02 M145.67 188.11 C158.09 167.49, 170.77 154.63, 194.81 127.82 M146.77 184.65 C157.68 169.16, 168.76 154.05, 196.87 125.82 M153.9 187.76 C157.77 176.11, 173.53 157.49, 199.95 127.84 M154.47 183.69 C165.1 170.51, 176.15 158.46, 199.12 130.76 M158.55 187.98 C168.14 168.54, 182.52 156.32, 199.07 141.43 M157.66 182.98 C173.32 169.53, 186.59 152.93, 198.55 139.29 M160.56 182 C172.18 175.38, 183.18 162.05, 195.4 140.37 M163.77 183.51 C171.02 177.58, 177.55 169.49, 196.61 146.11 M168.33 186.72 C176.99 169.09, 186.07 161.32, 197.7 153.65 M167.72 185.82 C177.54 174.52, 189.31 160.44, 199.12 148.2 M170.41 181.27 C178.15 177.37, 186.83 172.56, 201.85 158.24 M173.42 183.68 C183.58 173.25, 190.41 162.42, 198.49 154.82 M177.79 185.48 C187.37 179.51, 188.39 169.64, 194.86 162.28 M180.73 185.93 C186.42 175.68, 193.51 169.58, 198.66 162 M180.62 182.37 C189.1 179.28, 194.61 174.7, 197.19 171.63 M183 186.15 C188.97 178.73, 192.87 171.26, 198 170.28 M190.09 182.02 C194.52 180.77, 192.56 180.84, 195.89 176.26 M189.83 184.49 C190.44 181.35, 194.18 178.93, 198.12 175.07 M195.55 184.42 C196.92 182.58, 197.87 181.52, 198.92 180.56 M194.71 184.41 C195.94 183.19, 197.19 182.33, 198.4 180.64 M0 184.43 C0 184.43, 0 184.43, 0 184.43 M0 184.43 C0 184.43, 0 184.43, 0 184.43 M6.93 186.14 C5.98 185, 2.26 183.09, -0.26 180.47 M6.24 185.31 C4.34 182.18, 1.39 180.51, 0.96 179.96 M13.48 182.61 C4.91 179.2, 1.7 176.14, 2.47 172.13 M11.05 184.81 C8.57 181.93, 3.37 177.76, -0.99 172.23 M15.58 188.36 C14.36 178.72, 9.22 179.29, 3.6 170.17 M18.89 183.04 C14.2 180.46, 11.77 175.98, 1.09 170.37 M21.37 183.8 C14.7 178.78, 13.77 173.2, -3.91 166.31 M23.24 183.8 C18.25 178.25, 8.45 168.51, -1.96 161.71 M28.89 183.18 C25.48 180.62, 14.62 173.13, 2.06 158.22 M29.65 182.67 C23.63 176.9, 15.64 170.78, 1.37 157.74 M36.23 185.76 C26.45 174.26, 17.24 162.67, -0.83 155.4 M35.15 183.01 C27.84 179.56, 20.89 169.59, -0.92 151.83 M44.69 184.82 C37.42 173.74, 23.89 165.68, -0.18 151.54 M42.08 186.26 C32.7 174.65, 22.19 168.2, 1.22 148.3 M45.56 185.17 C38.74 172.37, 25.78 165.46, -2.4 142.74 M48.05 186.21 C28.57 167.24, 9.08 151.63, 1.58 141.48 M55.28 182.05 C43.6 174.55, 30.24 157.86, -2.19 140.29 M56.4 184.59 C41 172.2, 27.07 161.1, -0.48 137.13 M58.04 181.85 C49.64 170.27, 32.47 158.54, -4.06 132.87 M62.06 184.64 C38.17 163.02, 12.04 140.96, 1.64 131.54 M64.95 181.05 C58.07 169.98, 40.35 160.74, 0.19 123.37 M65.93 182.71 C48.93 164.79, 25.8 149.8, -0.44 124.94 M76.82 183.68 C46.73 158.19, 20.82 137.7, 1.95 123.07 M72.96 182.51 C45.12 160.7, 18.77 138.43, -0.32 120.54 M78.96 186.79 C66.98 173.9, 46.01 154.75, -1.65 116.44 M78.12 185.32 C61.31 169.04, 41.56 153.71, 0.95 114.05 M84.32 183.33 C63.2 166.38, 46.68 151.98, 2.68 111.37 M84.89 185.64 C56.03 160.91, 26.5 133.54, 0.55 108.63 M92.11 182.95 C62.03 151.51, 29.39 129.44, 2.97 103.9 M91.04 184.72 C53.6 153.15, 18.52 123.15, -0.28 104.42 M98.95 182.86 C60.12 153.42, 23.56 118.7, -3.59 96.53 M99.11 186.15 C70.42 159.43, 46.38 138.81, 1.44 97.55 M101.68 185.31 C80.72 164.82, 65 146.56, 3.95 94.9 M102.4 186.17 C65.18 152.03, 26.93 117.68, 0.25 93.63 M108.1 183.09 C85.71 164.2, 62.41 138.45, 0.68 86.09 M111 183.81 C73.19 147.86, 32.2 115.28, -0.07 90.72 M116.21 186.4 C82.36 154.03, 45.82 119.19, 2.45 83.34 M114.27 184.58 C80.61 152.36, 41.04 120.31, -0.7 84.88 M120.7 187.6 C77.75 148.22, 27.41 103.79, -3.73 80.33 M122.59 185.97 C90.94 155.1, 55.91 126.91, -2.04 77.14 M132.24 188.14 C98.66 154.14, 67.28 132.45, 2.88 71.88 M129.86 185.11 C79.8 138.43, 30.92 98.14, -1.97 75.01 M132.16 184.03 C97.4 153.36, 59.25 117.91, -0.79 64.27 M135.5 184.97 C102.39 159.02, 72.12 131.67, -2.12 67.46 M139.29 183.27 C87.5 138.16, 33.63 88.3, -3.09 63.92 M138.48 184.59 C109.38 159.42, 73.95 131.37, 1.93 62.47 M149.13 184.79 C92.54 137.9, 31.69 88.72, -2.44 56.35 M147.76 182.75 C108.97 151.69, 71.34 121.7, -0.88 58.61 M148.82 183.32 C101 134.71, 42.92 86.6, 3.08 55.22 M152.13 183.55 C118.34 159.23, 85.65 130.23, 0.8 51.39 M158.34 187.33 C104.29 134.27, 45.1 85.89, -3.21 49.44 M158.54 183.69 C111.02 147.27, 66.32 104.98, -0.61 47.13 M165.03 183.57 C132.72 151.47, 99.28 122.65, -2.94 43.51 M166.04 183.24 C102.82 136.78, 48.14 86.92, 1.04 39.57 M171.2 181.76 C125.24 138.05, 72 102.13, -1.63 33.03 M169.26 183.48 C109.92 132.3, 49.92 80.31, -1.23 37.14 M174.57 180.93 C111.26 125.09, 44.94 71.18, 1.59 33.71 M176.9 182.76 C114.57 130.52, 52.19 77.49, 1.23 29.88 M181.52 181.53 C131.83 134.5, 76.23 91.75, -0.15 24.7 M183.07 185.26 C120.9 132.54, 59.85 77.43, 0.61 26.04 M188.64 186.98 C132.44 131.29, 73.51 80.68, -0.1 17.83 M189.28 183.31 C148.12 151.76, 109.26 117.19, 0.57 19.65 M192.47 185.68 C130.86 135.56, 74.54 82.93, 1.47 14.7 M196.09 182.8 C152.83 146.87, 109.7 107.56, 1.65 16.17 M194.67 181.98 C131.72 123.44, 67.7 65.26, -1.19 8.4 M198.38 182.06 C123.81 113.29, 45.35 47.42, -1.34 7.78 M200.38 173.52 C145.12 129.06, 89.32 80.75, -0.28 7.55 M199.28 176.46 C142.98 126.84, 87.01 80.04, -0.75 4.61 M197.37 168.17 C131.89 115.55, 65.11 57.69, 1.51 -0.7 M198.09 169.26 C150.3 128.15, 104.67 85.69, -0.78 -1.7 M200.3 163.89 C126.5 109.6, 65.16 50.97, 6.84 1.47 M198.92 164.79 C150.9 125.37, 108.64 87.35, 7.38 -1.14 M196.87 158.48 C151.07 116.64, 107.07 75.64, 10.86 0.33 M197.86 159.72 C122.27 91.9, 46.55 28.95, 12.93 -1.34 M199.52 154.4 C137.19 102.31, 78.23 46.83, 16.45 0.7 M198.5 154.72 C140.84 102.77, 83.66 54.77, 19.18 0.61 M200.65 146.51 C158.46 120.84, 119.78 87.73, 23.33 -3.91 M195.83 149.61 C131.11 94.47, 65.76 37.46, 25.72 -1.4 M198.51 147.2 C161.33 114.84, 125.53 83.76, 27.57 0.5 M198.89 145.49 C159.54 110.66, 122.51 79.15, 30.7 -0.28 M198.83 139.76 C136.96 86.8, 70.94 34.5, 37.28 2.67 M197.28 139.56 C137.01 89.77, 78.06 36.88, 39.03 -0.32 M200.75 131.02 C164.11 97.89, 126.82 72.36, 40.82 1.38 M197.81 134.12 C143.93 82.75, 87.54 36.6, 43.75 -1.48 M198.48 125.99 C144.73 86.51, 90.55 36.21, 51.61 0.72 M198.4 128.76 C161.96 97.47, 122.83 63.84, 48.78 -0.53 M198.46 123.33 C170.3 95.86, 140.32 72.97, 52.32 -2.88 M196.69 122.4 C143.55 74.15, 92.34 30.06, 53.24 -2.7 M200.84 121.26 C155.02 83.3, 114.17 45, 62.3 0.79 M196.42 119.61 C148.66 73.88, 94.34 27.56, 60.89 -1.16 M201.09 114.23 C163.03 88.74, 139.78 63.02, 70.12 -2.22 M197.81 114.17 C170.6 89.57, 141.85 65.51, 66.43 -0.82 M196.9 105.39 C161.05 70.24, 118.48 38.83, 76.02 -0.33 M199.38 106.54 C148.8 62.51, 101.57 19.44, 73.59 -0.25 M198.66 100.78 C153.08 66.14, 110.21 32.53, 78.73 -2.91 M195.68 102.94 C156.59 71.08, 119.82 38.99, 81.11 -1.46 M195.95 98.15 C160.45 60.45, 116.3 30.72, 86.65 2.54 M199.01 96.81 C172.63 77.75, 151.2 55.54, 85.27 -2.22 M200.07 89.14 C170.31 68.28, 140.36 36.19, 92.43 -0.76 M197.2 91.8 C176.56 72.48, 156.33 57.17, 93.61 -2.59 M194.52 88.08 C168.09 59.64, 141.93 35.88, 100.13 -0.05 M199.36 87.3 C173.99 65.17, 153.49 45.9, 99.45 -1.21 M201.49 78.21 C162.96 53.3, 132.7 31.41, 104.02 0.5 M197.62 81.44 C174.68 62.42, 152.14 41.03, 103.88 -1.17 M200.4 72.45 C174.49 52.83, 154.37 41.45, 107.35 -2.77 M196.9 76.55 C167.93 47.39, 136.67 21.89, 109.76 0.3 M194.33 67.64 C182.17 50.48, 163.27 37.19, 117.53 -2.1 M196.6 70.2 C171.3 49.8, 149.39 25.03, 116.24 -0.58 M200.61 65.29 C177.98 47.17, 155.49 35.32, 120.72 2.44 M196.44 64.69 C172.58 45.47, 151.6 24.41, 120.47 -0.58 M197.25 57.83 C175.38 38.41, 148.89 21.63, 125 -2.13 M198.14 58.03 C173.69 36.82, 145.62 14.91, 128.15 -1.88 M201.46 57.37 C177.39 39.3, 163.46 24.6, 131.16 -0.25 M199.2 53.48 C172.74 33.7, 149.8 15.05, 135.47 -1.77 M200.15 49.94 C185.94 39.18, 171.33 25.37, 143.46 -2.36 M198.63 50.51 C185.65 35.15, 170.6 21.06, 139.18 -2.5 M196.46 40.23 C190.18 35.41, 177.92 29.49, 148.83 -1.96 M198.74 42.33 C184.17 33.97, 172.08 20.37, 147.02 0.44 M196.2 37.86 C182.15 23.52, 164.68 12.44, 155.44 -2.88 M198.84 38.85 C183.72 27.09, 170.19 15.62, 151.53 -0.25 M198.41 30.14 C188.92 24.76, 181.9 19.06, 155.89 -0.37 M197.02 32.25 C183.17 23.57, 168.17 7.84, 160.51 0.03 M197.81 24.26 C186.27 15.8, 170.56 9.2, 161.98 -3.64 M195.9 27.88 C188.17 19.65, 181.84 15.16, 163.03 -0.01 M199.34 20.12 C189.65 13.49, 181.68 5.48, 167.48 -2.39 M196.36 21.87 C185.79 14.17, 177.92 4.68, 171.45 -1.36 M196.64 20.53 C195.03 13.64, 187.52 6.94, 175.36 -3.88 M199.32 16.05 C194.39 13.56, 186.66 8.49, 175.88 -1 M194.7 11.95 C190.99 10.14, 188.59 2.33, 180.44 -4.03 M199.38 11.5 C192.43 7.3, 190.78 3.79, 182.05 -2.39 M197.14 7.19 C195.46 3.46, 191.56 -0.74, 188.75 -0.94 M199.02 7.53 C195.48 3.82, 191.39 1.29, 189.59 -0.27 M197.84 1.04 C197.22 0.86, 196.4 0.17, 195.15 -0.95 M197.67 1.46 C197.18 0.74, 196.34 -0.51, 195.21 -0.83" stroke="#ffd43b" stroke-width="0.5" fill="none"></path><path d="M0.69 -0.63 C46.55 -1.23, 86.61 1.46, 195.49 -3.51 M-1.89 -1.54 C62.9 -1.56, 123.08 -1.04, 196.23 1.59 M195.2 -0.87 C194.46 57.24, 197.43 119.89, 193.48 183.93 M198.57 -1.4 C193.62 70.53, 197.2 136.46, 196.22 183.25 M201.2 183.51 C152.63 185.84, 102.54 181.65, -2.88 183.05 M196.9 183.52 C147.75 185.95, 97.36 187.72, 0.94 183.62 M-0.31 183.91 C-5 114.63, 0.04 53.82, 3.67 -3.97 M-0.44 184.46 C0.85 144.48, -0.14 102.63, -0.99 1.95" stroke="#1e1e1e" stroke-width="1" fill="none"></path></g><g stroke-linecap="round"><g transform="translate(921.259773394687 270.385177836072) rotate(0 61 1)"><path d="M-0.05 -2.06 C19.44 -1.4, 98.78 3.06, 119.58 3.5 M-3.52 2.99 C16.58 2.87, 103.34 -0.68, 124.67 -0.69" stroke="#1e1e1e" stroke-width="4" fill="none"></path></g><g transform="translate(921.259773394687 270.385177836072) rotate(0 61 1)"><path d="M99.9 6.67 C111.64 6.79, 118.73 -0.4, 123.81 -0.51 M102.09 7.52 C108.09 5.21, 115.76 2.4, 124.14 -0.23" stroke="#1e1e1e" stroke-width="4" fill="none"></path></g><g transform="translate(921.259773394687 270.385177836072) rotate(0 61 1)"><path d="M99.51 -10.42 C111.37 -3.57, 118.62 -4.02, 123.81 -0.51 M101.69 -9.58 C107.89 -6.39, 115.68 -3.7, 124.14 -0.23" stroke="#1e1e1e" stroke-width="4" fill="none"></path></g></g><mask></mask></svg>